<svg xmlns="http://www.w3.org/2000/svg" viewBox="0 0 909.1 911.5" xml:space="preserve">
  <g fill-rule="evenodd" clip-rule="evenodd">
    <path d="M472.69 892.115c-9.112-9.346-23.13-25.934-31.542-37.383-30.373-41.354-44.392-67.756-57.242-106.307-5.374-16.588-7.477-26.401-5.608-26.401.468 0 2.337 1.401 4.44 3.037 13.55 10.748 28.738 18.458 44.859 22.196 19.86 4.673 47.663 5.607 65.186 1.87 11.215-2.337 24.065-7.477 32.476-13.318 4.673-3.038 17.99-15.655 21.495-20.327 1.87-2.57 3.505-3.271 4.206-1.636.467 1.168-2.337 19.159-4.44 27.57-4.205 17.056-9.579 34.112-17.756 53.971-7.944 19.392-17.523 53.037-19.626 67.99-.467 3.271-1.168 8.878-1.87 12.383-.466 3.505-1.401 9.58-1.868 13.551-.468 3.972-1.169 7.477-1.169 7.71-.233.468-18.224 2.103-23.597 2.103-.701.234-4.206-3.037-7.944-7.009z" fill="#0b6170"/>
    <path d="M428.298 900.526c-7.01-.467-24.533-3.037-36.215-5.14-21.261-3.738-30.373-5.607-31.775-6.075-.935-.467-1.402-1.402-2.103-3.504-3.504-12.383-10.046-32.243-11.916-36.215-2.102-3.972-5.84-9.58-9.345-14.018-3.738-4.44-25.467-26.402-36.448-36.916-10.28-9.813-14.019-12.85-21.73-17.99-3.036-2.103-5.84-4.206-6.074-4.673-.467-.701 0-1.402 2.337-4.206 12.85-14.252 26.635-30.84 29.672-35.98 2.337-3.739 4.206-8.412 4.206-10.047 0-1.402-1.87-3.738-3.505-4.44-.934-.233-2.336-.233-4.673.234-10.98 2.57-32.009 3.271-49.532 1.636-14.018-1.402-40.186-6.075-43.457-7.71-1.636-.935-.935-1.87 2.336-4.44 8.411-6.308 13.084-10.513 26.168-22.196 23.364-21.027 35.981-35.046 54.439-60.28 8.878-12.149 13.785-18.223 21.027-26.167 21.73-23.598 39.953-36.916 55.84-40.42 2.104-.467 7.244-.701 14.72-.701h11.682l-.233 4.673c-.467 14.72-5.374 31.541-12.15 41.588-4.205 6.075-7.009 8.178-7.009 5.14 0-3.037 3.738-14.018 8.178-24.299 2.102-4.906 2.102-5.373 1.168-6.308-.467-.467-.935-.234-2.103.935-4.205 4.205-12.15 18.925-15.654 29.439-6.075 17.523-10.28 49.999-9.346 69.391.935 15.888 4.44 35.747 8.645 50.467 11.215 38.084 34.58 82.943 59.812 114.952 8.412 10.514 35.981 40.42 42.99 46.494 3.973 3.505 4.907 5.374 3.038 6.075-.467.701-38.785 1.168-42.99.701zm82.242-4.673c-.467-.467-.234-2.803 1.168-9.813 2.336-11.682 3.037-13.785 5.841-22.43 1.168-3.971 3.738-12.149 5.841-18.457 1.87-6.308 5.14-16.355 7.243-22.43 3.505-10.747 5.374-15.887 12.383-33.644 7.01-18.224 14.019-41.121 16.589-53.971 1.168-6.309 4.672-29.44 5.607-38.318.467-3.504 1.636-3.037 6.776 3.505 6.775 8.411 16.121 17.757 20.327 20.56l3.738 2.337-.234 2.103c-1.168 8.177-1.635 19.158-1.635 34.579 0 18.925.467 27.336 2.57 38.55 1.402 8.178 1.635 8.879.467 9.814-2.336 1.869-7.477 9.812-13.318 21.027-2.336 4.44-7.009 12.85-10.513 18.458-3.505 5.607-6.776 11.448-7.477 13.084-.701 1.402-3.738 6.542-6.776 11.215-10.98 17.056-12.383 19.392-13.55 19.626-3.038.467-12.384 2.102-19.86 3.27-4.44.702-9.346 1.403-10.748 1.87-3.738 0-3.738 0-4.44-.935z" fill="#374147"/>
    <path d="M562.642 886.508c0-.468 3.271-5.14 7.243-10.28 14.252-18.692 17.29-24.066 26.635-45.327 5.14-11.682 5.14-11.682 8.645-4.206 1.402 2.804 4.439 7.944 6.542 11.449 12.616 18.925 17.056 25.7 16.822 26.635-.234 1.635-12.617 7.01-24.532 10.514-14.486 4.439-23.832 7.243-30.841 9.58-7.477 2.57-10.514 2.803-10.514 1.635zm-217.988-1.169c-9.112-2.336-32.476-10.514-48.364-17.055-2.804-1.169-7.01-2.804-9.346-3.739-2.102-.934-5.84-2.57-7.943-3.504l-3.972-1.87-.935-3.738c-2.57-9.813-5.84-25.467-6.776-31.775-2.336-14.953-6.074-29.205-8.878-32.243-2.57-3.037-5.374-1.402-5.374 3.038 0 7.943 2.337 19.86 7.944 42.055 2.337 9.112 3.972 16.589 3.972 16.822-.7.701-17.99-8.644-29.672-16.12-8.645-5.375-14.72-9.814-23.598-17.29-9.112-7.477-8.645-7.01-8.411-11.449.233-2.103.467-7.71.934-12.617.234-4.906.701-11.214 1.168-14.252.468-5.84 3.972-29.906 4.673-33.177.234-1.168.935-6.308 1.636-11.215.7-5.14 1.402-9.813 1.635-10.28.701-1.635 1.168-1.635 13.318.701 23.598 4.206 46.495 6.075 59.578 4.44 8.412-.935 8.412-.935 8.645.467.234 1.869-14.018 18.69-26.869 31.308-6.542 6.542-7.943 8.644-7.943 11.682 0 3.037 1.869 5.14 11.214 11.915 6.776 4.907 10.28 8.178 20.327 18.224 12.617 12.617 28.27 29.673 33.878 36.916 6.776 8.645 14.72 21.729 18.692 31.308 4.439 10.747 4.906 12.15 2.803 11.916-.7-.234-1.869-.468-2.336-.468zm302.333-30.84c.934-4.206 4.673-17.056 6.308-21.963 3.972-11.215 12.617-27.336 25.934-47.195 7.477-11.215 15.42-24.3 18.458-30.14 1.402-2.57 2.103-3.271 3.037-3.271.701 0 1.169 0 1.169.233 0 0 .934 2.57 1.869 5.374 2.336 6.776 5.14 16.822 6.542 24.533 1.402 7.009 3.27 14.953 5.14 20.56 1.869 5.841 1.635 6.075-1.168 8.178-1.402.934-6.075 4.906-10.514 8.644-9.813 8.178-21.963 17.29-30.14 22.664-10.981 7.009-23.598 14.018-25.7 14.018-1.169 0-1.169-.234-.935-1.635zM224.562 685.575c-.234-.467.234-3.037.7-5.84.936-4.44 1.87-6.776 6.777-16.59 6.542-12.85 10.98-20.326 17.523-29.204 8.41-11.215 15.186-17.056 26.401-22.664 5.608-2.803 14.486-5.84 17.29-5.84 2.336 0 .7 2.803-10.514 17.99-13.084 17.523-17.056 22.43-28.037 34.812-8.178 9.112-27.804 28.271-29.205 28.271-.234-.234-.701-.467-.935-.935zm306.538-71.26c-8.644-13.318-13.55-28.972-15.42-50.467-.234-3.271-.234-3.505.935-4.44 2.57-1.635 15.887-2.336 17.289-.934.467.468.467 2.337 0 7.243-.467 3.738-.7 10.514-.7 14.953 0 9.346-.235 9.813-3.74 6.776-2.803-2.337-3.971-3.038-4.672-2.337-.467.468.234 1.636 1.635 3.739 4.907 7.243 8.178 14.72 8.879 21.728.234 3.038.467 5.841.234 6.075-1.169 1.636-2.57.701-4.44-2.336z" fill="#414c51"/>
    <path d="M632.034 857.302c-2.804-4.672-9.112-16.588-10.514-19.392-2.103-4.44-8.879-25.233-10.981-33.41-1.402-5.14-3.271-11.916-4.206-14.954-5.14-16.822-6.308-41.354-3.037-65.653l.934-7.477-1.635-2.57c-.935-1.402-4.673-5.84-8.411-9.813-12.617-13.084-24.065-28.738-29.206-39.719-5.84-12.617-14.719-42.99-17.523-60.513-2.103-12.383-2.336-17.99-2.336-40.654 0-11.682 0-22.663-.234-24.299l-.467-2.803 6.075-5.608c9.345-8.41 19.158-20.093 27.57-32.71 8.177-12.15 12.616-22.663 17.055-39.252 1.168-4.439 2.337-7.943 2.804-8.177.467-.234 1.635-.467 2.804-.234 4.439.234 8.41-4.205 11.915-12.383l1.636-4.439-.234-9.58c0-5.14.234-10.98.468-12.616.233-1.635 1.869-6.308 3.504-10.046 2.804-6.542 3.037-7.01 3.037-10.982 0-3.504-.233-4.672-1.401-6.775-2.804-5.14-9.813-10.28-16.589-11.916-1.635-.467-2.804-.935-3.037-1.168-.701-2.103-1.169-17.29-.701-24.299.467-6.542.934-9.112 2.57-15.888 1.168-4.439 2.57-10.046 2.804-12.616.934-5.841.467-7.243-3.505-10.047-3.505-2.57-4.206-3.505-5.607-7.01-6.309-16.12-8.178-28.737-7.71-49.064.233-12.15.934-18.925 2.336-29.673 1.402-11.448 0-25.467-3.505-33.878-3.505-8.644-10.514-18.224-18.925-26.168-6.308-6.074-7.476-6.775-7.944-6.074-.233.233 1.402 2.336 3.271 4.439 5.14 5.374 7.944 9.346 11.449 16.355 3.27 6.776 6.074 16.355 6.074 21.261 0 3.972-1.168 3.505-3.971-1.168-2.804-4.673-5.14-7.71-12.15-15.42-7.476-8.411-16.355-16.122-31.308-26.635-3.037-2.103-7.476-5.374-9.813-7.243-14.486-10.982-24.532-16.589-34.345-18.692-10.28-2.336-36.215-5.607-64.252-7.944-2.336-.233-5.84-.7-8.177-1.401-3.505-.935-4.206-1.169-6.075-3.038-1.87-1.869-3.037-4.673-3.738-8.644-.701-3.038-3.505-2.103-3.505 1.168 0 .934.234 2.803.467 3.738.234.935.468 2.336.234 2.804-.467 1.402-7.01 6.308-15.187 11.215-17.99 11.214-32.009 22.663-40.42 33.177-9.58 12.15-20.794 31.775-25.467 44.859-2.336 6.542-4.439 15.42-5.84 24.299-.702 4.205-1.403 9.579-1.87 11.915-1.402 8.178-3.27 24.066-3.738 31.776-.234 5.84-.234 9.112.467 13.317.467 3.038.935 8.645 1.168 12.383l.234 6.776-2.336.935c-2.57 1.168-4.206 3.504-5.608 7.476-.7 2.337-.934 4.907-.934 12.85 0 8.645.233 10.514 1.168 14.486l1.168 4.673-1.636 14.252c-2.57 20.093-2.102 18.458-5.14 18.925-5.607.701-11.448 5.14-14.252 10.748-1.635 3.27-1.635 3.972-1.635 8.177 0 3.505.467 6.309 1.635 10.28 1.402 5.14 1.636 6.542 1.87 18.225.233 12.149.467 12.85 1.868 15.654 2.804 6.308 4.673 7.71 15.42 11.915 3.74 1.402 7.244 2.804 7.711 3.038.701.233 1.636 2.102 2.804 4.906 5.374 13.318 18.224 36.682 29.439 53.037 7.009 10.046 14.72 16.588 26.868 22.43 4.44 2.102 11.683 5.84 15.888 8.177 8.178 4.44 8.178 4.44 7.477 7.71-.234 1.168-.234 1.168-11.449.935-16.355-.468-22.43.934-35.513 7.71-11.916 6.308-22.897 14.486-34.813 26.168-8.178 7.944-8.178 7.944-19.159 9.813-18.457 3.27-32.242 10.28-44.158 22.43-7.71 7.71-13.785 15.887-21.261 28.27-4.206 6.776-5.841 9.346-6.776 9.346-1.168.233-1.168 0-1.168-5.841 0-4.673.233-7.243 1.635-12.15.935-3.504 1.87-7.71 2.103-9.345 3.037-15.187 8.878-35.514 14.486-50 1.402-3.504 3.738-10.28 5.607-15.186 1.636-4.907 4.44-12.617 6.075-17.29 4.44-12.617 7.01-24.299 7.944-35.514.467-6.074.7-6.775 1.869-6.775.7 0 1.635 1.402 3.27 5.374 3.505 8.177 7.244 15.42 10.281 20.093 3.037 4.439 7.477 10.046 7.944 9.58.234-.234-3.972-10.047-9.112-20.561-9.813-20.56-14.252-39.019-17.523-73.364-.468-5.841-1.636-16.121-2.57-22.663-1.402-11.215-1.402-13.084-1.402-36.916 0-26.635.233-31.308 3.037-54.906 3.738-33.41 9.346-59.11 18.925-87.849 2.57-7.71 5.608-16.822 6.542-20.327 4.907-15.186 16.589-37.382 31.542-59.578 7.243-10.982 10.981-15.654 25.934-33.178 13.084-15.186 16.589-18.691 23.598-24.065 12.15-9.112 24.299-12.616 35.514-10.046l3.738.934 3.037-2.336c9.112-6.776 17.99-11.449 27.336-14.019 10.28-3.037 33.645-5.84 46.962-5.84 11.682 0 17.99 1.401 36.215 7.943 18.458 6.776 23.13 8.878 38.083 18.224 16.122 9.813 28.271 19.86 44.626 35.981 23.832 23.364 32.944 37.15 46.028 69.859 13.083 32.476 19.392 49.766 24.766 67.055 11.915 39.486 17.523 67.756 19.158 97.429 1.402 27.102-1.168 47.663-12.383 99.999-3.972 18.224-8.878 46.728-9.58 56.541-.934 10.981-.466 26.635 1.17 37.15.466 2.57 1.167 7.71 1.868 11.681 2.57 17.056 8.178 35.981 23.364 79.205 5.841 16.355 8.412 25 9.112 29.906.701 4.44.701 18.691 0 24.065-.7 5.14-3.27 15.42-5.14 21.028-4.439 12.383-11.448 25.467-23.597 44.158-9.58 14.72-12.15 18.925-16.355 27.103-3.505 7.009-5.841 13.551-7.01 19.158-.467 2.337-1.402 5.841-1.869 8.178-1.635 7.01-4.673 22.196-5.14 26.168-.234 3.504-.467 3.972-2.103 4.906-3.27 1.636-3.972 1.168-6.775-3.972zM615.912 663.38c.701-2.803 1.87-7.242 2.337-9.579 2.103-10.046 5.14-19.158 14.252-42.99 4.906-13.084 8.177-22.897 8.645-26.402.233-1.635-.468-.467-2.337 4.44-1.402 3.738-4.439 10.514-6.775 14.953-7.944 15.42-11.916 25.233-15.42 39.485-2.103 9.112-2.57 12.383-2.804 23.598-.234 7.71-.234 8.879.233 5.608.468-2.103 1.168-6.309 1.87-9.113zm-27.803-84.11c.234-16.122 4.44-30.374 15.888-53.037 3.972-7.944 6.542-14.253 7.243-18.692.233-1.402-.468-.467-2.57 3.505-1.636 3.037-4.44 7.71-6.309 10.514-4.44 6.542-9.346 16.121-11.682 23.13-3.271 9.813-4.906 26.168-3.271 35.981.234 1.87.467 3.738.467 3.972 0 .467 0 .701.234.701v-6.075z" fill="#f79868"/>
    <path d="M446.522 495.858c-4.907-.467-14.72-3.037-18.458-4.906-4.439-1.87-9.58-6.075-9.345-7.477.233-1.168.467-1.168 11.448-1.168 7.477 0 13.785.234 18.925.7 12.15 1.17 20.093 1.636 24.299.935 20.327-3.27 19.392-3.037 19.392-1.635 0 1.168-3.972 4.906-7.71 7.476-7.477 5.14-24.766 7.71-38.551 6.075zm-26.168-14.252c-.935-.935-.234-1.87 2.57-3.271 6.308-3.271 13.318-5.841 16.822-6.542 3.505-.467 3.972-.467 9.346 1.168 6.308 1.87 6.308 1.87 16.355-.233 9.58-2.103 12.85-1.636 20.327 2.102 2.803 1.402 3.972 2.337 3.972 3.271.233 1.169-.468 1.636-6.542 2.804-5.14 1.168-25 1.168-35.047.234-9.112-.935-16.355-.701-25.467.467-.934.234-2.102.234-2.336 0z" fill="#deb096"/>
    <path d="M451.428 734.874c-4.439-.467-18.925-3.505-24.532-5.14-15.187-4.673-26.402-11.215-39.486-23.13-7.71-7.01-10.747-9.58-12.85-10.515-.934-.467-1.869-1.168-1.869-1.635-1.402-3.505-2.103-47.897-1.168-59.812l.467-5.14 3.271-2.57c14.019-10.748 22.43-22.197 26.635-36.215 2.804-9.112 4.907-22.43 4.907-30.84 0-3.506 0-3.506 1.402-3.506.934 0 3.037 1.169 6.074 3.505 11.916 9.112 14.72 10.981 21.028 14.019 9.346 4.672 12.15 5.14 23.364 5.14 10.514 0 16.355-.935 21.729-3.271 1.87-.701 7.01-3.739 11.682-6.542 4.907-3.038 8.878-5.14 9.58-4.907.934.234 1.168.701 1.401 5.608.701 12.616 4.44 26.168 10.047 37.382 7.71 14.953 15.654 24.3 24.299 27.337 2.336.934 2.57 1.168 5.84 12.149 2.804 8.878 5.374 16.121 7.477 20.093 1.402 2.804 2.103 8.645 2.337 16.121 0 3.739-.234 4.44-1.87 7.944-2.57 5.14-7.71 12.617-11.448 16.589-6.075 6.542-17.523 15.42-23.598 18.691-6.542 3.271-20.794 7.01-32.009 8.178-5.14.7-27.803.934-32.71.467zm-4.906-167.288c-9.813-2.57-19.392-7.71-36.682-19.86-5.14-3.738-9.813-6.308-19.626-11.214-15.42-7.477-20.327-10.748-25.233-16.121-4.673-5.14-10.748-13.084-13.785-18.224-19.159-32.243-21.495-37.15-28.504-54.673-1.636-4.205-5.608-16.588-7.243-22.663-1.636-6.308-2.804-15.42-3.038-24.065-.233-8.178.701-38.084 1.169-38.551.7-.701 2.803.935 4.205 3.037 2.337 3.505 10.514 12.85 14.252 16.355 7.01 6.542 17.056 12.85 24.065 15.42 6.075 2.103 12.15 3.038 21.496 3.038h8.41l5.842-1.87c6.074-2.102 14.953-6.775 20.794-10.747 4.673-3.27 13.317-12.15 16.822-17.056 1.636-2.336 3.738-6.308 5.14-8.878 2.337-4.673 5.14-14.72 5.841-19.86.467-3.037 1.402-3.971 5.608-5.607 4.906-1.635 12.383-2.336 20.794-1.87l7.009.468.7 5.608c1.636 14.018 4.907 22.43 12.851 33.177 6.075 8.177 15.654 14.953 26.87 19.158 5.84 2.103 16.354 3.972 23.597 3.972 10.514 0 22.897-2.336 28.738-5.14 6.776-3.504 13.785-10.28 19.392-18.691 1.87-3.038 2.804-3.972 3.505-3.738.934.233.934.467.934 11.915-.467 34.58-1.869 48.364-8.644 77.102-4.44 18.925-11.449 34.813-20.795 46.495-3.504 4.44-16.12 18.691-18.925 21.261-4.906 4.907-14.485 11.682-23.364 16.589-7.476 4.205-19.86 12.617-25.467 17.757-5.14 4.439-12.85 7.243-24.065 8.644-9.58.701-15.654.701-22.663-1.168zm19.392-68.69c6.075-.701 14.72-3.271 18.224-5.374 1.168-.701 4.907-3.505 8.178-6.075 3.27-2.57 6.542-5.374 7.243-5.841 1.168-.935 1.168-.935.233-1.87-2.336-2.57-18.925-10.28-24.065-11.214-2.336-.467-9.346 1.168-14.953 3.505l-3.738 1.635-3.505-1.869c-7.944-4.206-12.383-4.44-21.028-1.635-7.476 2.336-22.196 11.214-22.196 13.083 0 1.636 6.542 6.776 13.785 10.748 4.907 2.57 14.486 5.374 21.262 5.841 5.373.467 13.084 0 20.56-.934zM304.934 451.7c-3.971-2.337-8.177-6.309-9.812-9.346-.701-1.402-.935-3.504-.935-14.018v-12.383l-2.803-8.178c-3.038-8.878-3.271-11.916-1.87-15.654.468-1.168 1.169-2.804 1.87-3.738 1.401-2.103 7.243-5.841 8.878-5.841h1.402v14.486c0 13.784 0 14.953 1.402 22.897 1.635 9.812 3.738 17.99 6.775 26.401 1.169 3.271 2.103 6.308 2.103 6.776-.234 1.635-3.037.934-7.01-1.402zm215.652-5.841c-5.84-2.337-12.616-7.01-17.29-12.15-2.336-2.57-5.14-6.308-6.307-7.943-2.103-3.271-2.103-3.271-1.636-1.402.234 1.168.935 3.27 1.636 4.906 3.27 6.776 19.158 17.99 25.467 17.99.934-.233.467-.7-1.87-1.401zm-118.456-2.57c6.308-3.505 9.58-6.776 12.383-12.383 1.635-3.505 3.27-8.411 2.804-8.879-.234-.233-.701.701-1.169 2.103-3.037 7.477-11.682 17.29-17.756 20.327-1.636.934-3.038 1.635-3.038 1.87 0 .466 3.505-1.17 6.776-3.038zm196.96-1.636c.234-1.869.701-5.84 1.168-9.112 1.169-8.41 1.402-21.962.701-34.112-1.168-19.158-1.168-22.896-.233-23.13 1.401-.467 6.074 1.402 9.345 3.972 6.776 5.14 7.477 10.514 2.103 22.196-3.27 7.01-3.738 10.28-4.205 22.196-.234 9.58-.468 11.448-1.636 14.018-1.402 3.972-4.44 7.243-6.308 7.243-1.402 0-1.402 0-.935-3.27zM461.71 435.58c4.439-.701 12.616-3.972 14.72-5.842.934-.7 1.4-1.635 1.4-1.635-.233-.234-1.868.234-3.971.935-5.374 1.635-14.72 2.57-19.626 1.869-6.776-.935-10.514-3.038-15.888-8.645-3.037-3.037-4.439-3.738-5.607-2.336-1.402 1.401-.7 3.037 2.57 6.308 4.907 5.14 8.645 7.476 16.121 9.112 3.739.7 5.841.934 10.28.234zm10.747-20.094c1.402-1.402 1.168-3.27-.467-4.205-2.804-1.168-5.14 2.103-3.271 4.205 1.168 1.402 2.103 1.402 3.738 0zm-105.372-21.261c-10.28-2.57-24.066-10.28-30.841-17.056-5.374-5.374-12.15-15.42-16.121-23.364-3.739-7.243-5.608-17.29-5.608-28.037 0-5.841.467-7.477 3.271-9.58 3.505-3.037 13.318-6.775 21.028-8.177 4.906-.935 20.327-2.103 26.635-2.103 8.879 0 23.364 1.87 31.775 3.972 13.084 3.505 19.626 6.308 28.037 11.916 10.047 6.775 10.982 7.944 10.982 13.785 0 16.121-7.01 31.541-19.86 43.457-8.177 7.71-15.888 11.916-25.934 14.019-10.047 1.869-18.224 2.57-23.364 1.168zm160.979-4.206c-12.15-2.57-19.392-5.373-26.635-10.28-10.047-6.776-20.327-22.196-21.963-33.177-1.168-7.71-.233-16.355 2.57-21.261 3.739-6.776 13.552-12.617 28.505-17.757 12.383-4.206 19.626-5.374 32.943-5.374 17.29 0 31.776 2.57 41.589 7.243 6.308 3.037 9.112 5.14 10.514 8.177 1.401 3.038 1.168 4.673-.701 11.916-6.309 25.467-9.813 32.944-20.56 46.728-6.777 8.412-9.58 10.28-19.393 12.383-7.944 2.103-21.028 2.57-26.869 1.402zm-141.12-40.42c3.972-1.635 7.01-5.84 6.309-8.878-.701-2.804-.468-2.804 10.28-3.271 12.383-.467 13.551-.701 8.41-2.337-3.504-1.168-4.672-1.168-26.634-1.635-18.692-.234-24.065-.7-29.44-1.402-3.504-.467-7.008-1.168-7.71-1.402-.467-.233.234.468 1.87 1.168 4.673 2.57 3.972 4.673-1.87 4.907h-2.803l2.336.467c1.402.234 8.178.701 15.42.701 7.244 0 13.552.234 13.786.234.467 0 .7.934.7 2.57-.233 4.205 0 4.673 1.636 6.775 3.037 3.038 4.44 3.271 7.71 2.103zm150.466-3.037c2.57-1.87 3.972-5.374 3.037-7.71-.234-.701-.467-1.87-.234-2.337.234-.934 1.402-.934 12.85-1.168 9.346-.234 13.085-.467 14.72-1.168l2.337-.701h-5.842c-5.607 0-5.84 0-5.84-1.168s.934-1.636 6.541-2.804c2.337-.467 3.972-.935 3.972-1.168-.233-.234-3.504.233-7.243.934-5.373.935-11.448 1.169-24.766 1.636-19.626.467-25 1.168-28.738 2.804l-2.57 1.168 6.309-.234c3.504 0 7.943 0 10.046.234l3.739.467v4.206c0 4.906.467 5.84 4.205 7.71 2.337 1.168 5.14.934 7.477-.701zm-96.26-21.962c-3.74-3.271-14.253-9.813-22.197-13.785-16.355-8.178-27.57-10.748-48.597-11.682-14.253-.468-32.243 0-41.121 1.401-2.804.468-6.075.701-6.776.701h-1.635l-.234-3.738c-.234-2.103-.467-7.944-.701-13.084-.467-11.682 0-14.72 5.374-46.027 3.504-24.533 5.84-30.841 17.056-51.168 9.813-17.757 13.317-22.897 22.43-32.243 5.373-5.607 21.26-19.392 30.606-26.868 2.337-1.87 5.608-4.673 7.01-6.542 1.635-1.636 3.037-3.038 3.27-3.038.234 0 1.636 1.169 3.038 2.337 3.972 3.972 9.58 6.074 20.093 8.177 18.458 3.505 47.196 10.28 61.915 14.486 8.178 2.336 19.393 7.944 28.037 13.785 9.813 6.542 28.037 21.261 34.813 28.037 8.177 8.177 18.458 19.626 23.831 26.401l4.44 5.374-.234 6.075c-.234 3.27-.467 10.047-.935 14.953-.934 13.551-.7 27.803.234 36.915.935 8.412 2.336 13.785 5.374 19.86 1.869 3.972 2.103 4.907 1.402 5.374-.468.233-15.42-1.87-19.86-2.804-5.374-1.168-18.925-1.869-28.972-1.168-20.093 1.168-35.28 6.075-49.765 15.654-12.85 8.645-15.42 10.28-17.523 11.215-3.271 1.402-9.58 2.336-19.626 2.803l-8.645.468-2.103-1.87zm-13.552-28.505c2.103-2.103.467-4.673-5.14-9.813-3.505-3.037-11.215-7.476-13.318-7.476-.467 0-2.103-.468-3.738-1.168-4.673-1.87-12.85-2.804-26.402-2.804-13.785 0-16.12.233-25 3.504-3.971 1.402-5.373 2.337-9.812 5.842-2.804 2.336-5.608 4.906-6.309 5.84l-1.168 1.636 3.972-2.103c4.673-2.336 11.215-4.439 17.29-5.373 9.579-1.636 26.635-1.402 39.251.233 6.542.935 13.552 3.972 20.795 9.112 2.336 1.636 6.074 3.271 8.177 3.505 0 .233.701-.234 1.402-.935zm70.326-7.476c10.981-4.206 12.15-4.44 17.523-5.14 7.71-.701 31.075-.234 37.617.7 4.672.701 12.616 2.804 15.887 3.972.701.234 1.402.468 1.402.234 0-.467-6.542-5.14-9.58-6.776-6.541-3.738-13.083-5.373-25.466-6.775-10.28-1.168-18.458-.935-28.504.934-10.748 1.87-14.253 3.038-19.393 6.542-4.205 2.804-6.542 5.14-6.542 6.309 0 1.402 2.57 3.972 3.972 3.972.701.467 6.542-1.636 13.084-3.972z" fill="#ffdcbc"/>
  </g>
  <path d="M435.354 911.517c-8.124-.386-27.856-2.32-38.302-3.868-23.6-3.482-32.499-5.804-63.837-17.024-9.285-3.482-20.118-6.964-24.374-8.124-4.256-1.161-8.511-2.322-10.059-3.095-1.547-.387-5.03-1.935-8.125-3.096-3.095-1.16-9.285-4.255-13.928-6.964-4.642-2.708-13.154-7.35-18.957-10.446-15.476-8.124-29.79-16.249-34.047-18.957-1.934-1.16-5.416-3.482-7.737-5.03l-8.125-5.416c-2.321-1.548-6.19-4.256-8.512-5.417-2.321-1.547-5.416-3.869-7.35-5.416l-2.709-3.095-.774-9.286c-.773-9.672-.386-15.862.774-25.921 1.16-8.125 4.256-24.761 7.351-41.01 1.548-7.738 3.095-14.702 3.095-15.09 0-.773-.774-1.547-2.321-2.32-3.095-1.548-4.643-3.483-4.643-5.804 0-2.708 1.16-4.643 6.577-8.899 2.709-2.32 5.03-4.255 5.03-5.03 0-.386.774-3.868 1.548-6.963l1.547-6.19-.774-6.19c-.773-4.643-.773-9.286-.773-20.506 0-14.702.386-18.957 2.708-33.272 1.547-10.446 3.095-15.476 8.124-29.017 11.994-31.338 23.6-64.998 27.857-80.473 4.255-14.702 5.416-23.6 5.803-39.076 0-7.351 0-8.899-1.548-17.023-.773-5.03-2.321-13.541-3.482-18.958s-2.321-13.541-2.708-17.41c-1.934-11.607-2.321-16.636-3.095-34.433-.387-18.958 0-30.177 1.934-50.296 1.548-16.636 3.87-31.725 6.578-46.04 3.095-17.023 5.03-23.6 16.636-58.807 6.19-18.57 16.25-42.171 23.213-53.39 5.804-9.673 12.768-20.12 17.41-26.31 13.928-18.57 17.023-22.826 20.892-27.468 7.738-9.286 16.637-18.958 21.28-22.827 7.737-6.577 16.636-11.994 23.986-15.089 8.125-3.095 18.571-3.869 24.374-1.547l3.096 1.16 2.321-2.32c8.125-6.965 21.666-13.155 35.594-16.25 10.446-2.322 27.856-5.03 36.754-5.804 15.09-1.16 22.827.387 46.04 8.125 14.315 4.643 20.505 7.35 30.178 12.767 23.213 13.155 39.85 25.535 60.741 46.814 20.893 20.892 31.339 36.755 44.106 68.093 20.892 48.748 27.082 66.545 35.98 100.591 3.87 15.089 6.19 26.696 8.125 40.624 2.322 15.862 2.709 22.052 2.709 37.528 0 26.308-2.709 46.814-11.22 84.342-5.804 25.148-10.833 51.843-11.994 63.45-1.16 12.767-.387 25.922 2.322 42.945 3.482 20.505 8.898 40.236 19.344 68.866 5.803 15.476 11.607 32.886 13.154 39.076 1.935 7.35 2.709 17.41 1.935 26.695-.387 6.578-1.16 10.833-3.87 20.506l-.773 2.32 4.643 8.512c7.738 13.929 9.672 17.797 12.767 28.63 1.935 6.577 4.256 18.958 5.803 27.47l.774 6.19-1.934 2.321c-3.87 4.643-12.38 13.154-18.57 17.41-3.096 2.321-10.834 8.512-17.024 13.154-13.154 10.446-25.148 18.958-31.725 22.44-12.767 6.964-35.98 17.41-52.617 23.213-4.256 1.548-11.607 4.256-17.023 6.19-15.476 5.804-29.017 9.286-43.332 11.607-3.095.387-8.125 1.548-11.22 2.322-27.469 6.19-62.676 10.446-91.306 10.833-5.803.773-12.38.773-14.315.773zm30.178-11.606c3.095 0 5.416-.387 5.803-.774 0-.387-1.934-2.708-4.643-5.03-9.285-8.511-31.725-32.885-41.01-44.105-21.666-27.082-43.719-66.545-56.099-101.365-11.22-31.725-15.863-64.998-12.767-92.854 1.934-19.344 5.416-35.207 9.672-46.427 2.708-6.964 7.738-17.023 11.22-22.44 4.255-6.19 6.19-7.35 8.124-5.416 1.161 1.16 1.161 1.935-.773 6.964-4.256 9.673-5.417 13.155-6.964 17.797-.774 2.708-1.161 5.417-1.161 5.417.774.773 5.416-6.19 8.125-11.607 4.255-8.899 6.577-17.797 8.124-31.338.387-4.643.387-5.803 0-6.19-1.934-1.161-20.892 0-27.082 1.547-4.643 1.16-13.541 5.417-19.345 9.286-8.511 5.803-15.862 11.993-25.921 22.052-13.154 13.541-15.863 16.637-34.046 41.398-7.351 10.059-19.732 24.76-28.243 33.659-3.096 3.095-11.22 10.833-18.571 17.41-16.25 14.702-18.57 16.636-25.535 22.053-3.095 2.321-5.803 4.256-5.803 4.642 0 .774 12.767 3.482 26.695 5.804 23.987 3.869 49.522 4.256 65.385.387 4.255-.774 5.803-.774 7.737.773 4.256 3.096 1.935 10.446-6.19 21.28-4.643 6.19-17.41 21.278-22.826 27.082-2.709 3.095-5.03 5.803-5.03 5.803s2.708 1.934 5.803 3.869c3.096 1.934 7.738 5.416 10.06 7.35 4.642 3.483 32.498 30.565 42.557 41.398 8.512 8.899 13.928 16.25 16.637 23.213 1.547 3.87 6.964 20.506 9.672 29.017 1.16 3.482 1.934 6.577 2.321 6.964.387.387 2.709 1.16 5.417 1.548 41.784 7.738 48.748 8.898 64.223 10.059 3.096 1.16 29.017 1.16 34.434.774zm26.695-1.935c5.803-.387 10.833-.774 11.22-1.16.387-.387 1.16-6.964 2.321-14.702 3.095-20.892 3.87-25.535 6.577-37.142 5.417-21.665 9.673-34.82 17.41-53.777 10.06-25.148 17.41-50.296 19.732-69.254.387-3.482.774-6.19.387-6.19 0 0-1.548 1.16-3.095 2.708-3.87 4.256-11.994 12.38-16.637 15.863-4.642 3.869-12.767 8.124-19.344 11.22-12.38 5.03-32.112 8.124-46.427 7.737-19.731-.773-34.046-3.095-45.653-6.577-12.38-4.256-22.053-8.898-32.886-17.023-3.869-2.708-6.964-5.03-6.964-4.643-.387.387 2.322 10.446 5.417 20.119 8.898 28.63 20.505 53.39 36.367 78.152 5.03 7.737 17.41 25.534 23.988 34.046 11.993 15.862 34.433 41.397 36.367 41.397.387 0 5.417-.387 11.22-.774zm26.696-3.095c2.32-.387 5.803-1.16 8.124-1.16 2.322-.387 6.577-1.161 9.286-1.548 3.095-.387 6.577-1.16 7.35-1.16 1.935-.388 2.322-.775 9.286-11.607 3.869-6.19 8.898-13.928 10.833-17.41s5.803-9.673 8.511-14.702c2.709-4.643 7.738-12.768 10.446-18.571 5.804-10.833 10.446-18.184 12.768-20.505 1.547-1.548 1.547-1.548 1.16-4.643-1.16-6.19-2.708-17.41-3.095-25.535-.774-10.059-.387-36.754.774-46.426.387-3.87.774-6.964.774-7.351 0-.387-.774-1.161-2.322-1.935-4.642-2.708-15.088-13.154-23.213-23.213-1.16-1.548-2.321-2.708-2.708-2.708s-.387 1.934-.774 3.868c-1.16 10.447-4.256 32.5-6.19 40.237-3.095 13.928-10.446 36.368-19.345 58.807-4.255 11.22-11.22 31.338-16.249 48.362-2.321 6.964-4.643 15.088-5.416 17.797-1.935 5.803-3.87 13.154-5.804 22.826-.774 4.256-1.547 7.738-1.547 7.738.386-.387 3.482-.387 7.35-1.16zm60.354-12.38c6.964-2.322 17.41-5.417 23.214-6.964 9.672-2.709 18.957-6.577 24.374-9.286l1.934-1.16-10.446-15.863c-5.803-8.511-11.606-18.184-12.767-20.505-1.16-2.708-2.708-4.643-3.095-4.643s-3.095 5.417-5.804 11.994c-8.898 19.344-10.833 23.213-24.374 40.623-3.869 5.03-6.964 9.286-6.964 9.673-.387.773 1.935 0 13.928-3.87zm-233.294-.774c-5.03-12.767-11.994-25.148-19.732-35.98-4.642-6.191-21.666-24.762-35.207-38.69-9.285-9.285-13.928-13.541-18.57-17.023-9.286-6.577-11.22-8.512-12.38-10.833-2.322-5.03-1.162-7.35 10.445-18.958 8.899-9.285 23.214-25.534 23.214-26.695 0-.387-.774-.387-1.548-.387s-5.03.387-8.898.774c-13.155 1.16-35.981-.774-59.582-5.417-4.642-.773-8.511-1.547-8.511-1.16-.387.387-.774 3.869-1.548 8.124-.773 4.256-1.547 10.833-2.321 14.315-3.869 23.6-6.19 46.814-6.19 59.195v4.255l8.124 6.577c9.673 8.125 13.928 11.22 24.374 17.797 8.512 5.417 25.922 14.702 26.309 14.315 0 0-.387-1.934-.774-4.255-6.964-24.761-11.993-49.91-10.833-54.939.774-4.256 5.03-5.416 7.738-2.321s6.577 16.25 8.899 31.725c1.547 10.833 7.35 35.594 8.124 36.754.774.774 22.44 9.673 37.915 15.09 14.702 5.416 30.952 10.832 32.112 10.058-.387.387-.387-.774-1.16-2.321zm292.875-20.892c.774-.387 1.161-1.548 1.161-3.87.774-8.124 6.964-36.754 9.285-43.718 3.096-8.898 8.512-18.957 20.506-37.141 10.059-15.476 13.54-21.279 18.57-31.725 10.446-22.053 14.315-42.558 10.446-60.355-1.16-5.803-6.577-21.666-12.38-37.528-11.22-30.178-18.184-56.486-21.28-77.765-1.16-9.285-2.32-22.827-2.32-29.017 0-5.416 1.547-20.505 2.708-28.63 3.095-18.57 4.642-26.695 11.993-61.128 2.709-13.542 6.19-32.886 7.351-43.332 1.161-11.22 1.161-37.528 0-49.522-3.482-32.886-13.54-73.896-28.243-112.972-19.344-51.456-28.63-71.188-42.558-88.21-5.803-7.352-23.6-24.762-32.885-32.886-14.702-12.38-32.112-24.374-46.427-31.338-10.833-5.417-33.66-13.542-43.332-15.476-5.03-1.16-23.213-1.16-32.885 0-25.922 3.869-37.142 7.35-51.457 17.41-6.964 5.03-6.577 5.03-10.059 3.869-11.993-3.482-25.921 1.16-41.01 14.315-4.643 3.869-30.178 33.272-36.755 42.558-5.03 6.964-15.475 22.826-20.505 31.338-3.482 6.19-12.767 24.374-15.089 29.403-.773 1.548-2.32 6.19-3.482 10.06-1.16 3.868-4.255 12.767-6.19 19.344-8.511 24.761-13.541 48.361-17.797 80.086-4.642 33.273-5.416 70.801-2.321 96.723.774 6.19 1.547 15.475 2.321 20.118 3.482 37.142 8.125 55.712 17.41 75.444 5.03 10.446 12.38 26.695 11.994 27.082-.387.387-4.643-3.482-6.964-5.803-4.643-5.03-8.899-11.994-13.928-23.214-1.935-4.256-3.482-7.35-3.482-7.738 0 0-.387.774-.387 2.322-2.321 18.957-5.03 29.79-10.833 44.879-1.548 4.643-3.869 10.06-4.643 12.767-.774 2.322-2.708 7.738-4.256 11.994-6.19 16.636-11.22 33.66-14.314 49.135-.774 3.095-1.935 8.512-2.709 11.994-1.16 4.255-1.547 7.737-1.547 10.832 0 5.417 0 5.417 5.416-3.868 13.928-23.6 26.696-36.755 43.719-44.493 7.738-3.482 11.993-5.03 22.44-6.964 5.029-1.16 9.672-1.934 10.059-2.321.386-.387 3.482-2.708 6.577-5.804 10.446-10.059 17.797-16.249 27.469-22.44 6.964-4.642 18.184-10.058 23.987-11.606 6.577-1.934 17.023-2.708 25.148-1.934 3.482.387 6.19.387 6.577.387 0 0 .387-.774.387-1.161.387-1.16-.387-1.548-6.964-5.03-3.869-2.321-10.833-5.803-15.476-7.737-12.38-5.804-19.731-11.994-27.469-22.44-2.708-3.482-16.25-25.535-18.957-30.951-3.096-5.417-8.899-18.184-11.22-23.987-.774-1.935-1.548-3.096-2.322-3.482-.773-.387-3.869-1.548-7.35-2.709-8.512-3.482-9.673-3.869-12.381-6.964-4.256-4.642-4.643-6.577-5.416-21.666-.387-11.606-.387-13.154-1.935-18.957-2.708-10.06-1.934-16.25 1.935-22.053 2.708-3.869 9.285-8.125 13.154-8.125.774 0 1.934 0 1.934-.386 0-.387.774-4.256 1.548-8.899.774-4.643 1.547-11.22 1.934-14.702 1.16-7.738 1.16-8.124 0-12.767-1.547-5.417-1.547-20.118-.774-25.922 1.161-5.803 3.096-8.898 6.19-10.446l2.322-1.16-.387-5.417c0-3.095-.774-8.511-1.16-11.993-1.548-10.833-.774-22.827 3.095-47.588 4.255-27.082 6.19-33.272 13.928-49.135 8.511-16.636 18.57-31.338 28.243-40.623 7.35-6.964 21.665-17.797 31.725-23.6 5.416-3.096 11.22-7.352 13.54-9.673 1.548-1.548 1.548-1.934 1.161-3.095-.773-3.095-.773-6.577.387-7.738.387-.387 1.548-1.16 1.935-1.16 1.16 0 2.708 1.934 3.095 3.868.387 2.709 2.321 6.19 3.869 7.738 1.934 1.935 5.803 3.095 13.154 3.482a4229.611 4229.611 0 0 1 40.237 4.256c25.921 3.482 32.111 5.03 43.718 11.994 6.577 3.868 34.433 24.76 43.719 32.111 8.898 7.351 19.344 18.958 24.374 27.083 1.934 2.708 1.934 3.095 2.321 1.934 0-1.16-2.708-10.059-5.03-15.475-3.095-6.964-6.963-13.155-11.993-18.571-4.256-4.643-4.643-5.03-3.869-6.577.774-1.548 2.708-.774 6.964 2.708 12.38 10.833 20.892 23.213 24.374 34.82 2.321 8.512 2.708 20.505 1.16 37.141-.773 8.512-1.16 13.928-1.16 26.696 0 14.702 0 16.636 1.16 22.826 1.161 7.351 3.87 16.25 6.578 22.053 1.16 3.095 1.934 3.869 4.256 5.417 3.482 2.32 5.03 4.642 5.03 7.737 0 3.095-1.548 10.833-3.87 18.571-1.934 7.351-2.708 16.636-2.32 28.63l.386 8.898 3.095.774c7.351 1.935 14.315 6.964 17.023 12.768 1.16 2.32 1.548 3.482 1.548 7.35 0 4.643-.774 6.578-4.643 15.476l-1.934 4.643v11.22c0 8.898-.387 11.606-1.161 14.314-1.934 7.351-5.803 12.768-9.285 14.702-.774.387-2.709 1.161-4.256 1.161l-3.095-.387-1.935 7.351c-4.642 17.41-8.898 26.695-16.25 37.915-8.898 13.541-18.183 24.761-27.855 33.66l-6.19 5.803v25.148c0 26.308 0 28.243 2.708 43.332 2.321 14.314 11.607 46.426 17.023 58.42 2.708 6.19 11.22 18.57 18.958 28.243 1.934 2.321 6.19 6.964 9.672 10.833 3.482 3.869 7.738 8.125 8.511 10.059 1.935 3.095 1.935 3.095 1.548 6.964 0 1.934-.774 6.19-1.16 9.285-.774 4.256-.774 8.899-.774 19.345 0 19.731 1.16 28.243 5.03 42.945 1.16 4.255 2.707 10.059 3.481 13.154.774 2.708 3.095 11.22 5.803 18.57 4.643 13.929 8.125 22.053 15.476 33.66 3.095 4.643 3.869 5.417 5.803 4.256zm18.571-9.286c13.541-7.35 29.017-17.796 41.784-28.63 3.095-2.32 7.738-6.19 10.446-8.511 2.709-1.934 5.417-4.256 5.804-4.643l1.16-.773-1.934-6.578c-1.16-3.868-2.708-9.672-3.482-13.54-1.935-9.286-3.095-15.476-4.643-20.893-1.934-6.964-4.643-13.54-5.03-13.54-.386 0-1.16 1.16-1.934 2.707-2.708 5.03-10.833 18.184-18.957 30.565-17.797 26.695-24.375 40.623-29.791 61.515-1.16 4.643-1.548 6.964-1.16 6.964 0-.774 3.868-2.321 7.737-4.643zM487.971 733.161c12.768-2.321 23.214-5.416 29.404-8.898 5.03-3.095 14.702-10.446 19.731-15.476 4.643-4.643 10.833-13.541 13.541-18.958l1.548-3.482-.387-6.964c-.387-6.964-.387-6.964-3.095-13.154-2.321-5.03-8.125-22.826-9.285-27.469-.387-1.16-1.161-1.934-3.095-2.708-6.964-3.095-12.38-8.125-17.797-16.637-9.673-15.088-15.09-30.564-16.25-47.587 0-2.708-.387-5.416-.774-5.803-.386-.387-1.934.387-5.416 2.708-13.541 8.511-18.184 10.446-28.243 11.607-6.964.773-17.797.386-23.213-1.161-8.899-2.708-17.797-7.738-26.696-14.702-5.803-4.643-8.898-6.964-9.285-6.577l-.774 7.738c-.774 11.22-1.934 18.57-5.03 27.469-3.868 12.38-13.154 24.76-24.374 33.272l-4.642 3.483-.387 3.482c-1.16 10.832-1.16 43.718.387 54.938.387 4.643.774 5.803 1.547 5.803 1.548.387 5.804 3.87 12.768 10.446 11.22 10.06 18.57 15.089 29.403 19.732 8.899 3.869 23.214 7.35 34.434 8.898 5.803 1.548 30.177 1.16 35.98 0zm-249.93-59.58c16.636-16.25 28.63-29.791 44.105-51.07 3.869-5.417 8.125-11.22 9.285-12.768 1.548-1.934 1.935-2.708 1.16-2.708-1.547-.387-8.898 1.934-13.927 4.256-13.541 6.577-22.827 15.088-33.66 32.112-7.35 11.22-16.249 29.016-17.797 35.207-1.16 4.642-1.16 5.803-.773 5.803.387 0 5.416-5.03 11.606-10.833zm295.97-63.45c-.774-6.578-4.642-15.09-10.059-22.44-1.934-2.709-.387-5.03 2.708-3.87.774.387 2.322 1.161 3.095 2.322 1.161 1.16 1.935 1.547 1.935.774 0-.387.387-5.804.774-11.994.387-6.19.387-12.38.387-13.541 0-1.934 0-1.934-1.935-2.321-2.708-.387-10.446.387-12.38 1.16-1.161.387-1.161.774-1.161 3.095 0 6.964 4.256 26.696 7.35 34.82 2.71 7.351 8.9 18.184 9.673 17.41 0-.386 0-2.708-.387-5.416zm-61.515-43.72c9.672-1.547 15.475-4.255 22.052-10.059 5.417-4.642 14.315-10.446 22.44-15.088 11.607-6.577 19.345-11.994 24.761-17.41 6.19-5.804 18.184-20.506 22.827-27.47 4.255-6.577 10.059-18.183 12.767-25.534 4.643-13.541 10.446-43.332 11.607-58.808.386-4.642.773-14.701.773-22.826s.387-15.476.774-16.636v-1.935c-.387 0-1.547 1.548-3.095 3.87-5.03 7.35-12.767 14.314-18.958 17.796-5.416 2.708-19.731 5.417-29.79 5.417-5.03 0-15.089-1.548-20.892-3.096-24.374-7.35-41.01-27.082-43.332-52.23-.387-3.095-.774-6.19-1.16-6.577-.387-.774-5.03-.774-12.768-.774-4.643 0-11.607 1.548-14.702 3.095-2.321 1.161-2.321 1.161-3.095 4.256-3.869 18.958-7.35 26.309-17.797 37.142-5.803 6.19-10.446 9.672-17.797 13.928-11.22 6.19-17.41 8.124-28.243 8.124-11.606 0-20.505-1.934-28.243-5.803-4.255-2.321-12.767-8.125-16.636-11.607-3.869-3.482-11.22-11.606-15.089-16.636-1.934-2.708-2.708-3.482-3.095-2.708-.387.387-.387 9.672-.774 20.118-.386 22.44 0 29.017 3.096 40.624 5.803 22.44 12.767 38.302 29.016 64.997 12.768 20.892 19.732 30.178 27.47 35.594 1.934 1.16 9.285 5.03 16.249 8.512 10.833 5.416 14.315 7.35 22.826 13.154 14.315 10.059 23.988 15.475 30.178 17.41 8.898 3.095 15.475 3.482 28.63 1.16zm-164.429-120.71c-3.095-8.898-4.642-15.475-5.803-22.826-1.934-12.38-2.321-16.249-1.934-27.856.387-13.154.387-12.767-4.643-8.898-2.321 1.547-3.482 3.095-4.256 5.03-1.934 3.868-1.547 6.963 1.16 15.862 3.096 10.059 3.483 12.38 3.096 23.213-.387 9.286-.387 9.286 1.16 11.607 1.935 3.095 5.804 6.964 9.673 8.898 1.934 1.161 3.482 1.935 3.482 1.548.387 0-.774-3.095-1.935-6.577zm295.971-5.416c2.322-3.869 3.095-6.19 3.482-17.797.387-12.38.774-14.701 5.03-23.987 4.256-8.898 3.869-13.54-1.16-17.797-2.322-1.934-7.352-4.642-8.512-4.642-.387 0-.387 1.934 0 8.511.387 4.643.387 17.023.387 27.083 0 15.088 0 19.73-.774 24.374-.387 3.095-.774 5.803-.774 6.19-.774 1.547 1.16 0 2.321-1.935zm-222.461-47.587c8.898-1.16 18.957-4.256 24.374-8.125 13.54-8.898 23.987-23.213 27.469-37.528 1.547-5.803 1.934-13.928 1.16-15.863-1.16-2.708-12.38-10.833-19.73-14.315-15.477-7.35-38.69-11.22-58.034-10.059-14.702 1.161-22.053 2.322-30.952 5.804-5.03 1.934-8.511 4.642-9.672 6.964-.774 1.547-.774 2.708-.774 8.124.774 14.315 3.87 22.827 12.768 36.368 7.738 11.607 13.54 17.023 26.308 23.213 11.607 5.804 15.476 6.578 27.083 5.417zm164.04-3.482c7.352-.774 14.316-2.321 17.798-3.869 6.964-3.095 18.57-18.57 23.6-31.338 2.321-5.417 6.577-21.279 8.125-28.63.774-3.869.774-4.256-.387-6.577-2.708-6.19-16.636-11.994-34.046-14.315-8.125-1.16-25.535-1.16-31.725-.387-5.804.774-16.637 3.869-23.988 6.577-18.57 7.351-25.147 15.089-24.76 29.404 0 7.738 2.708 15.089 8.898 23.987 8.125 12.38 20.118 20.118 35.98 23.213 10.834 2.322 12.381 2.709 20.506 1.935zm-82.794-65.771c3.096-.387 6.578-1.161 8.125-1.935 1.548-.774 6.964-4.256 12.38-7.738 5.417-3.482 11.994-7.737 15.09-9.285 13.927-6.964 29.016-10.06 49.134-10.06 10.446 0 15.09.388 29.017 2.71 5.417.773 9.672 1.547 10.06 1.547 0 0-.775-1.935-1.548-4.256-5.03-11.607-6.964-28.243-5.417-54.165.387-8.124.774-16.25 1.16-18.57 0-1.935 0-4.256-.386-4.643-2.321-4.256-25.922-30.564-32.499-35.98-6.964-5.804-22.44-18.185-29.016-22.44-8.899-6.19-17.41-10.447-25.148-12.768-10.06-3.482-33.66-9.285-53.391-13.154-22.827-4.643-27.47-6.19-31.725-10.06-1.16-1.16-1.935-1.934-2.321-1.934-.387 0-1.548 1.16-3.096 2.708-1.547 1.548-5.03 4.643-7.737 6.578-18.184 14.701-32.112 27.469-37.916 35.593-3.482 5.03-8.898 13.929-15.475 25.535-9.672 17.797-11.994 24.761-15.863 47.588-5.803 34.046-6.19 36.367-5.416 50.295.387 5.804.774 11.22.774 11.22 0 .387 2.32 0 4.642-.387 12.768-1.934 46.814-2.321 59.968-.387 7.738 1.161 16.637 3.482 22.827 5.804 10.446 4.256 27.082 13.54 32.885 18.57l1.935 1.935 6.577-.387c3.869-1.16 9.285-1.547 12.38-1.934zm151.661 360.968c-.773-1.934-1.16-13.928-.773-22.44.773-18.57 6.19-36.367 17.796-58.807 4.643-8.898 8.899-19.344 10.447-26.695.773-2.709 1.547-5.03 1.547-5.03.387 0 .387 2.708 0 6.19-.387 8.512-1.934 14.315-10.06 35.207-6.19 16.25-11.219 30.565-12.766 37.529-.774 3.482-1.935 8.511-2.709 11.606-1.547 6.19-2.708 15.09-2.708 19.732.387 3.095-.387 4.642-.774 2.708zm-24.76-91.306c-1.548-1.934-3.096-10.446-3.483-18.958-.773-20.505 4.256-36.754 16.25-54.551 3.095-4.643 6.964-11.994 9.285-17.41l1.16-2.708.388 1.934c.387 2.321-.774 9.285-1.935 13.541-.774 1.935-3.095 7.738-5.803 13.154-11.994 24.374-16.636 41.785-15.089 58.808a67.03 67.03 0 0 1 .387 6.577c-.387.387-.774 0-1.16-.387zm-147.019-92.08c-5.416-.774-13.541-3.095-17.797-5.416-7.35-3.87-15.475-9.673-15.475-11.607 0-.387-.774-1.548-1.548-2.708-2.321-3.095-1.934-5.03 1.548-5.03 3.095 0 9.672-1.934 12.767-3.869 4.256-2.321 10.06-4.642 15.089-5.803 5.803-1.16 10.833-.387 16.636 2.321l4.256 1.935 2.321-1.161c4.256-1.934 11.22-3.482 14.315-3.482 4.256 0 7.738 1.16 15.863 5.03 4.255 1.934 8.511 3.869 10.832 4.255 2.322.387 4.256 1.161 4.256 1.548s-.387 1.548-.774 1.934c-1.547 1.548-15.088 12.38-18.183 14.702-1.935 1.16-8.512 3.87-13.542 5.03-7.35 2.708-23.213 3.482-30.564 2.321zm29.017-7.738c8.512-1.934 14.315-5.03 18.184-9.285 1.547-1.548 1.16-1.548-5.804-.387-5.03 1.16-6.964 1.16-18.957 1.16-7.351 0-15.476-.386-17.797-.773-2.321-.387-9.285-.774-15.476-.774h-11.22l1.935 2.322c3.869 3.482 10.059 5.803 20.118 8.124 6.577 1.548 22.44 1.16 29.017-.387zm5.803-13.154c3.095-.387 6.964-1.16 8.512-1.547l3.095-.774-4.643-2.322c-6.19-3.095-9.672-3.095-18.57-1.547-8.125 1.934-12.38 1.934-17.797 0-3.87-1.16-4.643-1.548-7.738-.774-3.095.387-13.928 4.643-15.863 6.19-.773.774-.387.774 2.322.387 4.642-.387 18.57-.387 29.403.387 13.541.387 14.702.774 21.28 0zm-92.466-30.951c1.934-.774 6.19-2.708 9.285-4.256 5.416-2.708 6.577-3.482 11.22-8.125 5.416-5.416 8.124-9.672 11.22-17.41 1.16-2.321 1.934-4.255 1.934-3.869v5.804c-.387 4.642-.774 5.803-2.708 10.059-3.095 6.19-6.577 9.672-13.541 13.154-5.417 2.708-9.673 4.256-15.09 5.417-5.416 1.16-6.19.773-2.32-.774zm134.637-1.548c-7.35-1.934-19.731-11.22-22.826-17.023-2.322-4.256-3.87-15.089-2.322-15.089.387 0 .387.387.387.774 0 1.16 3.87 8.512 5.804 11.22 5.03 6.964 11.993 12.767 19.731 16.25 3.095 1.547 4.256 1.547 10.06 1.934 6.19.387 6.576.387 4.642 1.16-1.935.774-3.482.774-10.446 1.548-.774 0-3.482-.387-5.03-.774zm-70.414-11.606c-5.803-1.548-9.285-3.87-13.54-8.125-4.644-4.643-5.417-6.577-3.87-8.899 1.935-3.095 4.643-2.32 9.673 3.096 3.482 3.482 6.577 5.416 11.22 6.577 5.803 1.547 15.862.773 22.826-1.548 3.869-1.16 3.869-1.16 4.643-.387 1.547 2.322-3.483 6.19-11.607 8.899-4.643 1.16-15.476 1.547-19.345.387zm18.571-19.732c-1.16-1.16-1.16-3.482-.387-5.416 1.16-1.935 4.643-2.322 6.577-.774 1.16 1.16 1.16 4.643 0 5.803-1.547 1.935-4.642 1.935-6.19.387zm-86.276-65.384c-3.096-1.548-4.643-3.87-4.643-7.738l-.387-3.482H363.78c-8.899 0-13.928-.387-17.41-1.16-5.03-.774-5.417-1.161-5.03-1.935.387-.774 3.095-1.548 6.577-1.548 1.16 0 2.708 0 2.708-.387.387-.386-1.547-1.547-4.255-2.708-6.964-3.482-6.19-5.416 1.16-3.095 7.351 2.321 13.541 2.708 37.915 3.095 21.666.387 23.214.387 26.696 1.548 1.934.774 3.869 1.547 4.643 2.321 1.16 1.16 1.16 1.16.386 1.935-1.16.773-3.482 1.16-13.928 1.547l-8.511.387v1.934c0 3.096-1.16 5.03-3.482 7.351-3.095 2.709-6.577 3.482-9.672 1.935zm149.726-1.935c-2.321-.773-3.869-1.547-5.416-3.482-1.161-1.547-1.548-1.934-1.161-5.416l.387-3.869-4.256-.387c-2.321-.387-7.738-.387-12.38 0-7.738.387-8.125.387-8.125-.387 0-.387 1.16-1.16 2.708-1.934 1.548-.387 3.869-1.548 5.803-1.935 3.87-1.547 10.446-1.934 31.338-2.708 16.25-.387 30.178-1.934 34.82-3.869 3.483-1.547 5.417-.774 2.322 1.16-1.935 1.162-6.964 3.483-10.06 4.257-1.934.773-2.32.773-1.16 1.16.774 0 3.482.387 5.803 0 3.87-.387 4.643 0 4.643.387s-1.547 1.548-5.03 2.708c-4.642 1.548-5.029 1.548-17.023 1.935l-11.993.387.387 1.934c.387 3.482-1.548 7.738-4.643 9.286-1.934.773-5.03 1.547-6.964.773zM422.2 297.523c-1.934-.774-3.482-1.548-6.577-3.869-3.482-2.708-10.833-6.19-15.863-7.35-7.737-1.935-29.016-2.709-37.915-1.548-10.059 1.16-22.44 5.803-26.695 9.672-1.548 1.16-2.708 1.934-2.708 1.16 0-1.934 10.832-13.54 15.088-16.249 2.708-1.547 10.446-4.256 16.25-5.416 6.19-1.161 22.052-1.161 31.338 0 6.577.773 15.475 3.095 20.505 5.416 5.03 2.321 12.38 8.899 13.928 12.38 1.934 4.643-1.548 7.352-7.351 5.804zm60.742-4.256c-3.095-1.934-3.482-5.03-.774-7.738 3.869-4.255 10.06-7.737 16.25-9.285 12.767-3.095 25.147-4.256 37.528-3.095 12.767 1.16 19.731 3.095 26.695 6.964 5.03 2.708 16.636 11.607 16.636 12.38 0 .387-1.934 0-5.803-1.934-6.577-3.095-11.22-4.256-20.118-5.803-5.417-.774-8.899-1.161-22.053-1.161-8.512 0-16.636 0-17.41.387-1.16.387-7.351 2.321-14.315 5.03-6.964 2.708-12.767 4.642-13.541 4.642-1.16.774-2.321.387-3.095-.387z" fill-rule="evenodd" clip-rule="evenodd"/>
  <path d="M454.6 21.8c58.7 0 115.6 11.5 169.1 34.1 51.7 21.9 98.2 53.2 138.1 93.1s71.3 86.4 93.1 138.1c22.7 53.6 34.1 110.5 34.1 169.1s-11.3 115.7-34 169.3c-21.9 51.7-53.2 98.2-93.1 138.1s-86.4 71.3-138.1 93.1c-53.6 22.7-110.5 34.1-169.1 34.1s-115.7-11.4-169.3-34c-51.7-21.9-98.2-53.2-138.1-93.1S76 677.2 54.1 625.5C31.5 571.9 20 515 20 456.3s11.5-115.6 34.1-169.1c21.9-51.7 53.2-98.2 93.1-138.1S233.6 77.8 285.3 56C339 33.3 395.9 21.8 454.6 21.8m0-20C203.5 1.8 0 205.3 0 456.3s203.5 454.6 454.6 454.6 454.6-203.5 454.6-454.6S705.6 1.8 454.6 1.8z"/>
</svg>
