<svg version="1.1" id="Layer_1" xmlns="http://www.w3.org/2000/svg" x="0" y="0" viewBox="0 0 565.4 116.4" xml:space="preserve">
  <style>
    .st1{fill:#863b87}
  </style>
  <path fill="#b0539a" d="m0 70.9 5.6-2.1 8.7 1.1h5.6l6-2 4.2-2 3.8-.9 4.3-2.6 6.3-2.1h3.7l3.6-.7 3 .6 3.6 1.2 4 1.6 3 .3H68l2.4.3 1.9 1.7 4.8.7 8.1 2.4 7.9 1.8 5.4.7 2.7 2.1 3.9 1.7 5.2.6 7.5-1.1 7.8-1.8 8.2-2.4 4.2-1.3 9.1-4.2 5.1-3.4 2.6-.9h2.7l2.7-1.4L163 57l3.7-1.5h2.6l2.5-2.1 4.4-3.4 5.8-3.9 4.8-3.3 5.5-3.1 2.3-2.1h2.4l3.7-1.2 3.9-1.7 5.7-3.9 3.1-3.3 3.5-2.1 2.4-1.6h9l4.3-1h3.7l3.6-2.3 2.7-2.5 2.9-2 2.5-.7 2.8-1.7 7.4-3.6 3.4-1.3 2.9-.9h2.2l2.7 1 3.3 1.4 2.4 1.9 4.2 1.7 3.4 2.8 5.7 3.3 4 2.6 7.5 3.8L304 28l3.4.7h2.6l5.8.9 4.2 2 4.5 2.5 2.5.6 3.2.8 4.3.4 2.7 1.4 3.6.7 3.7.3 3.8-3.3 5.5-1 4.6-.5 2.9-.7 3.3.7 2.4 2 5.4 4.6 3.3 2.1 9.1 5.4 8.2 4.6 2.9 1.2 3.1 4.7 4.3 3.4 2.1 1.4 5.9 1.9 7 1.2 5.1.2 8.4.7 1.9.3 3.2 1.5 4.6 2.1 2.7 3 5.2 1.5 4.8 2.4h8.7l5.8-1.1 4.7-.1 3.9 1.2 4.9 2.2 2.8 1.7H492.2l3.6 1.8h4.7l5 1.5 8.9.6h23.9l7-2.1 9.6-3.2 3.3-1.6 7.2-3.2v41H0z"/>
  <path class="st1" d="m0 75.6 6.3-2.7H9l2.7 1.3 2.5 2.3h6.3l5.1.9 4 1.5h3l1.5 2.4 4.5 2.1 8.8 1.8h9.9l4.8-.8-3.9-1-2.1-1.1-4.8-1-3.7-.5-3.8-1.8h-2.9l2.8-3.6 1.2-2.5.6-2.1h-4l-2.6 2.1-3.4 1-2.6-.7h-1.8l-2.7.9-3-.3-2.1-1.1 2-1.9 7.2-2 4.6-1.4 3.5-1.7 3.7-1.8 1.9-.9 2.6 1.8 2.5 1.4 3.3 1 2 .4.9 2 1.2 1.5h2.7l1.6-.6 2.8 1.5 6 3.1 5 1.5 2.4.5 1.5 1.9 2.5.9 8.5 1.5 4.8 2.7 7.8 3.6 5.7 2.8 4.5 2.1 1.5 1.2h-12.7l-5-.9-3.3-2.1-4.9-.4-4.7 1-4.1.3-8.1-.3-7.5-.7-7-.2-3.8 1.7-5.1 2.4-3.4 1-1.1-2.8-4.9-1.5-4.5-.2-7.2-1.9h-5.8l-3.1 1.9-5.4 1.5-2.6.5 3-3.6v-3.6l-1.2-2.5-2.2-.6-4.4.6-2.2 2.5L0 87.7zM128 83.4l3.4 2.1 2.6.9 4.3-1.5 4.2-1.5h2.4l1.2 1.5v3.4l-1.8 1.8h6.6l2.7-3.4 3.1-3.3h2.3l4.2-2 5.6-3.1 7.5-2.4 3-3.5h5.4l3.7-2.4 4.2-2.4-3.1-1.4-3.4 1.2-3 .8-3.5-.1-1.3-.5.9-2.2 5.7-2.4 8.5-3.4 4-2.9 7.8-3.6 2-1.9.7-1.8h6.6l5.8-1.5h2.3l-1.1 3-6 3.4-4.9 2.9-4.8 5.8 8.4-3.7h1.9l-2.2 2.5-3 2.7-2 3.3-1.3 1.9-4.8 1.1-5.2.4-5 2.7-2.8 3.8-3.3 2.5-16.2 6.3-12.8 5.7-3.2.7 4.8.6h6l-.1 2.1 4.1-2.2 6.2-1.1 8.4-2.3 9.2-1.3 9.2-.2 4.6-1.4 7.1-3.7 4.3-1.9 4.5-2.2 4-.6 3.1.6v2.9l-3.7 4.4-4.1 6.1-.6 2.9h2.1l4.2-1.1 2.7-2.9 4-2.5.9-2.1 3.2-.6 5.2-.8 2.8-.4 1.8.4 2.7 2.3-.7 2.8-1.4 3.3-2.7 4.3-3 3.8.3 3.2 1.7 1.5h3.3l3.4-.5 1.1.5 10.8 1.2h22.4l3.8-1.2 2.6-1.3 2.7-1 2.8.7 2.6 1.1 4.8.4 3.9-.1 6.7.6 3.9-.6 3.1-1.4 7.6-.1 5.9.3h5.7l2.9-1.5 1.8-1.5-3.2-1.7-3.8-2.8-1-2.7-1.9-3.8-1-1.9-4.4-1.9-7.2.9-8.2.8-6.6.2-5-.1-1.3-1.7 1.6-2.3 2.2-3.7 1.5-3.1-.3-2.5-1.8-.4 1.9-1.9 1.4-4.1-.7-1.1-6.1-.9-6.6-.2-4-.1H290l-5.8-1.6-1.5-2.2L279 62l-5.9-1.1-2.2-1.5-.3-3.5-1.7-5.6-2.4.1-7.2.4-2.7 2.5-9.4 5.7-5.4 1.3-5.2 2.1-2.8.9-2.7.5-2.8-.2-1.8-1.6.8-1.7 4-1.8 3.8-2.1 2.4-2.8 2-3.1.9-1.8 1.6-.8h3l4.2-2.2 4.5-2.4 4.3-1.6 3.1-1.8 5.5-1.1h2.9l3 1.4 4 .5 1.2 3.1 1.5 3 1.9 1.8 2.8 1.5 4.6 1.7 3 1.1 2.5.6 1.7.1 4.1.5 2.6.6 2.4 1 1.7 2.8 1.7 2.1 2.7 2 3.6 1.2 3.3.5 3.7.4 1.8.5.2 2.6-3.2 2.6-4.9 4.4-2.5 4.6-1.3 3.5 4.1-1.4 7.2-1.9h3.1l3.8-2.3 3.7-2.4 3.4-.2 2.8 1.2 2.7 1.8 2.3 1.1h3.4l2.6.1 1.4 1.1 3.4 2.4 2.4.5 1.8.5 2.1 3.8 2.6 1.2 3.6.4h4l2.9.4 1.6 2 2.2 1.5 2 2.2 3.6-.1 5-.4 5.9.3 5.7.6 4.9.1 4.7-.1-3.2-3.2-6.2-1.8-2.5-1.8-2.3-2.4-5.8-2.7-8.1-3.5-6.7-3.3-5.3-1.1-4.6-3.2-2.1-3.7-3.7-2.5-6.9-1.1-1.5-1.5-1.2-3.4L347 56l-4.6-.6-7.2-1h-4.5l-4.1-.1-3-2.2-2.8-5.6-2.1-3.1-5-1.3-2.3-.6-6.4-1.1-8.6-1.6-7.2-2.4-1.4-1.2-2.4-1.5-3.5-.9-1.5-2.1-2.6-3.1-2.7-1.8-2.5-2.3-.6-2.3-1.7-3.8-1-2.3-4.4 1.2-2.5 1.3-2 .9-3.1-.1-1.7-.7-2.3.4-4.2 5.4-2 3-3.6 1.2-3.1 3.3-3.3 2.7-2.9 2.8-5.7 3.5-1.1-.3.1-2.8.7-3 .2-2.9-.1-2.4-4.1 1.8-3.8 3.3-2.4 4.2-8.7 3.2-3.3.3-11.4 6.3-3 1.2-2.2.9-4.2 2.3-6.4 3.5-11.9 6.6-3.8 2.5-4.4 2.7-10.8 6-7 3.2-6.2 2.6-4.3 2.4zM349.9 41.6l3.5 1.7 2.5 2.6 3.6 1 3.5.9 3.5 2.6 3.2 5.1v-2.8l2.7-1.9 2.9 5.5 5.5 3.7 7.5 2.9 6.2 2.6 7.3 2.1-8.8-4.9-4-3.3-6.4-5.7-2.2-3.9-2.5-2.2-6.5-2.3-6.3-3.7-2.1-2.8-3.1-1.7h-4l-2.5 1.9zM436.2 90.5l4-2.5 7.2-1.6 5.1-1.9 3.3-2.6h9.4l5.5-2.7 6.9 1.9 5.5 3.7 2.5 2.4-6.5 1.2-7.4-1.6-2.7.6.9 2-1.5 2.3h-4.9l-1.6-2.3-4.9-1.2-4.5.6-8.8 1.7-4.9.4zM510.9 95.2l4.3-2.3H532l6.1-3.1 9.4-1.4 9.6-2.9 8.3-3.8v13.5l-2-1.9-3.2-.6-3.5.8-5.5 2.7-5.7 1.8h-5.4l-3.2 1.7-2.9-1.5-5.7-1.6h-8l-7.3-.8z"/>
</svg>
