<?xml version="1.0" encoding="utf-8"?>
<!-- Generator: Adobe Illustrator 25.4.1, SVG Export Plug-In . SVG Version: 6.00 Build 0)  -->
<svg version="1.1" id="Layer_1" xmlns:serif="http://www.serif.com/"
	 xmlns="http://www.w3.org/2000/svg" xmlns:xlink="http://www.w3.org/1999/xlink" x="0px" y="0px" viewBox="0 0 945 946.7"
	 style="enable-background:new 0 0 945 946.7;" xml:space="preserve">
<style type="text/css">
	.st0{fill-rule:evenodd;clip-rule:evenodd;fill:#0B6170;}
	.st1{fill-rule:evenodd;clip-rule:evenodd;fill:#374147;}
	.st2{fill-rule:evenodd;clip-rule:evenodd;fill:#414C51;}
	.st3{fill-rule:evenodd;clip-rule:evenodd;fill:#F79868;}
	.st4{fill-rule:evenodd;clip-rule:evenodd;fill:#DEB096;}
	.st5{fill-rule:evenodd;clip-rule:evenodd;fill:#FFDCBC;}
	.st6{fill-rule:evenodd;clip-rule:evenodd;}
</style>
<g id="color" transform="matrix(2.33642,0,0,2.33642,284.608,191.189)">
	<path class="st0" d="M87.9,306.4c-3.9-4-9.9-11.1-13.5-16c-13-17.7-19-29-24.5-45.5c-2.3-7.1-3.2-11.3-2.4-11.3
		c0.2,0,1,0.6,1.9,1.3c5.8,4.6,12.3,7.9,19.2,9.5c8.5,2,20.4,2.4,27.9,0.8c4.8-1,10.3-3.2,13.9-5.7c2-1.3,7.7-6.7,9.2-8.7
		c0.8-1.1,1.5-1.4,1.8-0.7c0.2,0.5-1,8.2-1.9,11.8c-1.8,7.3-4.1,14.6-7.6,23.1c-3.4,8.3-7.5,22.7-8.4,29.1c-0.2,1.4-0.5,3.8-0.8,5.3
		c-0.2,1.5-0.6,4.1-0.8,5.8c-0.2,1.7-0.5,3.2-0.5,3.3c-0.1,0.2-7.8,0.9-10.1,0.9C91.1,309.5,89.6,308.1,87.9,306.4z"/>
	<path class="st1" d="M68.9,310c-3-0.2-10.5-1.3-15.5-2.2c-9.1-1.6-13-2.4-13.6-2.6c-0.4-0.2-0.6-0.6-0.9-1.5
		c-1.5-5.3-4.3-13.8-5.1-15.5c-0.9-1.7-2.5-4.1-4-6c-1.6-1.9-10.9-11.3-15.6-15.8c-4.4-4.2-6-5.5-9.3-7.7c-1.3-0.9-2.5-1.8-2.6-2
		c-0.2-0.3,0-0.6,1-1.8c5.5-6.1,11.4-13.2,12.7-15.4c1-1.6,1.8-3.6,1.8-4.3c0-0.6-0.8-1.6-1.5-1.9c-0.4-0.1-1-0.1-2,0.1
		c-4.7,1.1-13.7,1.4-21.2,0.7c-6-0.6-17.2-2.6-18.6-3.3c-0.7-0.4-0.4-0.8,1-1.9c3.6-2.7,5.6-4.5,11.2-9.5c10-9,15.4-15,23.3-25.8
		c3.8-5.2,5.9-7.8,9-11.2c9.3-10.1,17.1-15.8,23.9-17.3c0.9-0.2,3.1-0.3,6.3-0.3l5,0l-0.1,2c-0.2,6.3-2.3,13.5-5.2,17.8
		c-1.8,2.6-3,3.5-3,2.2c0-1.3,1.6-6,3.5-10.4c0.9-2.1,0.9-2.3,0.5-2.7c-0.2-0.2-0.4-0.1-0.9,0.4c-1.8,1.8-5.2,8.1-6.7,12.6
		c-2.6,7.5-4.4,21.4-4,29.7c0.4,6.8,1.9,15.3,3.7,21.6c4.8,16.3,14.8,35.5,25.6,49.2c3.6,4.5,15.4,17.3,18.4,19.9
		c1.7,1.5,2.1,2.3,1.3,2.6C87.1,310,70.8,310.2,68.9,310z M104.1,308.1c-0.2-0.2-0.1-1.2,0.5-4.2c1-5,1.3-5.9,2.5-9.6
		c0.5-1.7,1.6-5.2,2.5-7.9c0.8-2.7,2.2-7,3.1-9.6c1.5-4.6,2.3-6.8,5.3-14.4c3-7.8,6-17.6,7.1-23.1c0.5-2.7,2-12.6,2.4-16.4
		c0.2-1.5,0.7-1.3,2.9,1.5c2.9,3.6,6.9,7.6,8.7,8.8l1.6,1l-0.1,0.9c-0.5,3.5-0.7,8.2-0.7,14.8c0,8.1,0.2,11.7,1.1,16.5
		c0.6,3.5,0.7,3.8,0.2,4.2c-1,0.8-3.2,4.2-5.7,9c-1,1.9-3,5.5-4.5,7.9c-1.5,2.4-2.9,4.9-3.2,5.6c-0.3,0.6-1.6,2.8-2.9,4.8
		c-4.7,7.3-5.3,8.3-5.8,8.4c-1.3,0.2-5.3,0.9-8.5,1.4c-1.9,0.3-4,0.6-4.6,0.8C104.5,308.4,104.4,308.4,104.1,308.1z"/>
	<path class="st2" d="M126.4,304c0-0.2,1.4-2.2,3.1-4.4c6.1-8,7.4-10.3,11.4-19.4c2.2-5,2.2-5,3.7-1.8c0.6,1.2,1.9,3.4,2.8,4.9
		c5.4,8.1,7.3,11,7.2,11.4c-0.1,0.7-5.4,3-10.5,4.5c-6.2,1.9-10.2,3.1-13.2,4.1C127.7,304.4,126.4,304.6,126.4,304z M33.1,303.5
		c-3.9-1-13.9-4.5-20.7-7.3c-1.2-0.5-3-1.2-4-1.6c-0.9-0.4-2.5-1.1-3.4-1.5l-1.7-0.8L3,290.7c-1.1-4.2-2.5-10.9-2.9-13.6
		c-1-6.4-2.6-12.5-3.8-13.8c-1.1-1.3-2.3-0.6-2.3,1.3c0,3.4,1,8.5,3.4,18c1,3.9,1.7,7.1,1.7,7.2c-0.3,0.3-7.7-3.7-12.7-6.9
		c-3.7-2.3-6.3-4.2-10.1-7.4c-3.9-3.2-3.7-3-3.6-4.9c0.1-0.9,0.2-3.3,0.4-5.4c0.1-2.1,0.3-4.8,0.5-6.1c0.2-2.5,1.7-12.8,2-14.2
		c0.1-0.5,0.4-2.7,0.7-4.8c0.3-2.2,0.6-4.2,0.7-4.4c0.3-0.7,0.5-0.7,5.7,0.3c10.1,1.8,19.9,2.6,25.5,1.9c3.6-0.4,3.6-0.4,3.7,0.2
		c0.1,0.8-6,8-11.5,13.4c-2.8,2.8-3.4,3.7-3.4,5c0,1.3,0.8,2.2,4.8,5.1c2.9,2.1,4.4,3.5,8.7,7.8c5.4,5.4,12.1,12.7,14.5,15.8
		c2.9,3.7,6.3,9.3,8,13.4c1.9,4.6,2.1,5.2,1.2,5.1C33.8,303.6,33.4,303.5,33.1,303.5z M162.5,290.3c0.4-1.8,2-7.3,2.7-9.4
		c1.7-4.8,5.4-11.7,11.1-20.2c3.2-4.8,6.6-10.4,7.9-12.9c0.6-1.1,0.9-1.4,1.3-1.4c0.3,0,0.5,0,0.5,0.1c0,0,0.4,1.1,0.8,2.3
		c1,2.9,2.2,7.2,2.8,10.5c0.6,3,1.4,6.4,2.2,8.8c0.8,2.5,0.7,2.6-0.5,3.5c-0.6,0.4-2.6,2.1-4.5,3.7c-4.2,3.5-9.4,7.4-12.9,9.7
		c-4.7,3-10.1,6-11,6C162.4,291,162.4,291,162.5,290.3z M-18.2,218c-0.1-0.2,0.1-1.3,0.3-2.5c0.4-1.9,0.8-2.9,2.9-7.1
		c2.8-5.5,4.7-8.7,7.5-12.5c3.6-4.8,6.5-7.3,11.3-9.7c2.4-1.2,6.2-2.5,7.4-2.5c1,0,0.3,1.2-4.5,7.7c-5.6,7.5-7.3,9.6-12,14.9
		c-3.5,3.9-11.9,12.1-12.5,12.1C-18,218.3-18.2,218.2-18.2,218z M112.9,187.5c-3.7-5.7-5.8-12.4-6.6-21.6c-0.1-1.4-0.1-1.5,0.4-1.9
		c1.1-0.7,6.8-1,7.4-0.4c0.2,0.2,0.2,1,0,3.1c-0.2,1.6-0.3,4.5-0.3,6.4c0,4-0.1,4.2-1.6,2.9c-1.2-1-1.7-1.3-2-1
		c-0.2,0.2,0.1,0.7,0.7,1.6c2.1,3.1,3.5,6.3,3.8,9.3c0.1,1.3,0.2,2.5,0.1,2.6C114.4,189.2,113.8,188.8,112.9,187.5z"/>
	<path class="st3" d="M156.1,291.5c-1.2-2-3.9-7.1-4.5-8.3c-0.9-1.9-3.8-10.8-4.7-14.3c-0.6-2.2-1.4-5.1-1.8-6.4
		c-2.2-7.2-2.7-17.7-1.3-28.1l0.4-3.2l-0.7-1.1c-0.4-0.6-2-2.5-3.6-4.2c-5.4-5.6-10.3-12.3-12.5-17c-2.5-5.4-6.3-18.4-7.5-25.9
		c-0.9-5.3-1-7.7-1-17.4c0-5,0-9.7-0.1-10.4l-0.2-1.2l2.6-2.4c4-3.6,8.2-8.6,11.8-14c3.5-5.2,5.4-9.7,7.3-16.8
		c0.5-1.9,1-3.4,1.2-3.5c0.2-0.1,0.7-0.2,1.2-0.1c1.9,0.1,3.6-1.8,5.1-5.3l0.7-1.9l-0.1-4.1c0-2.2,0.1-4.7,0.2-5.4
		c0.1-0.7,0.8-2.7,1.5-4.3c1.2-2.8,1.3-3,1.3-4.7c0-1.5-0.1-2-0.6-2.9c-1.2-2.2-4.2-4.4-7.1-5.1c-0.7-0.2-1.2-0.4-1.3-0.5
		c-0.3-0.9-0.5-7.4-0.3-10.4c0.2-2.8,0.4-3.9,1.1-6.8c0.5-1.9,1.1-4.3,1.2-5.4c0.4-2.5,0.2-3.1-1.5-4.3c-1.5-1.1-1.8-1.5-2.4-3
		c-2.7-6.9-3.5-12.3-3.3-21c0.1-5.2,0.4-8.1,1-12.7c0.6-4.9,0-10.9-1.5-14.5c-1.5-3.7-4.5-7.8-8.1-11.2c-2.7-2.6-3.2-2.9-3.4-2.6
		c-0.1,0.1,0.6,1,1.4,1.9c2.2,2.3,3.4,4,4.9,7c1.4,2.9,2.6,7,2.6,9.1c0,1.7-0.5,1.5-1.7-0.5c-1.2-2-2.2-3.3-5.2-6.6
		c-3.2-3.6-7-6.9-13.4-11.4c-1.3-0.9-3.2-2.3-4.2-3.1c-6.2-4.7-10.5-7.1-14.7-8.1c-4.4-1-15.5-2.4-27.5-3.4c-1-0.1-2.5-0.3-3.5-0.6
		c-1.5-0.4-1.8-0.5-2.6-1.3c-0.8-0.8-1.3-2-1.6-3.7c-0.3-1.3-1.5-0.9-1.5,0.5c0,0.4,0.1,1.2,0.2,1.6c0.1,0.4,0.2,1,0.1,1.2
		c-0.2,0.6-3,2.7-6.5,4.8c-7.7,4.8-13.7,9.7-17.3,14.2C30.6-2,25.8,6.4,23.8,12c-1,2.8-1.9,6.6-2.5,10.4c-0.3,1.8-0.6,4.1-0.8,5.1
		c-0.6,3.5-1.4,10.3-1.6,13.6c-0.1,2.5-0.1,3.9,0.2,5.7c0.2,1.3,0.4,3.7,0.5,5.3l0.1,2.9l-1,0.4c-1.1,0.5-1.8,1.5-2.4,3.2
		c-0.3,1-0.4,2.1-0.4,5.5c0,3.7,0.1,4.5,0.5,6.2l0.5,2l-0.8,6.1c-1.1,8.6-0.9,7.9-2.2,8.1c-2.4,0.3-4.9,2.2-6.1,4.6
		c-0.7,1.4-0.7,1.7-0.7,3.5c0,1.5,0.2,2.7,0.7,4.4c0.6,2.2,0.7,2.8,0.8,7.8c0.1,5.2,0.2,5.5,0.8,6.7c1.2,2.7,2,3.3,6.6,5.1
		c1.6,0.6,3.1,1.2,3.3,1.3c0.3,0.1,0.7,0.9,1.2,2.1c2.3,5.7,7.8,15.7,12.6,22.7c3,4.3,6.3,7.1,11.5,9.6c1.9,0.9,5,2.5,6.8,3.5
		c3.5,1.9,3.5,1.9,3.2,3.3c-0.1,0.5-0.1,0.5-4.9,0.4c-7-0.2-9.6,0.4-15.2,3.3c-5.1,2.7-9.8,6.2-14.9,11.2c-3.5,3.4-3.5,3.4-8.2,4.2
		c-7.9,1.4-13.8,4.4-18.9,9.6c-3.3,3.3-5.9,6.8-9.1,12.1c-1.8,2.9-2.5,4-2.9,4c-0.5,0.1-0.5,0-0.5-2.5c0-2,0.1-3.1,0.7-5.2
		c0.4-1.5,0.8-3.3,0.9-4c1.3-6.5,3.8-15.2,6.2-21.4c0.6-1.5,1.6-4.4,2.4-6.5c0.7-2.1,1.9-5.4,2.6-7.4c1.9-5.4,3-10.4,3.4-15.2
		c0.2-2.6,0.3-2.9,0.8-2.9c0.3,0,0.7,0.6,1.4,2.3c1.5,3.5,3.1,6.6,4.4,8.6c1.3,1.9,3.2,4.3,3.4,4.1c0.1-0.1-1.7-4.3-3.9-8.8
		c-4.2-8.8-6.1-16.7-7.5-31.4c-0.2-2.5-0.7-6.9-1.1-9.7c-0.6-4.8-0.6-5.6-0.6-15.8c0-11.4,0.1-13.4,1.3-23.5
		C-4,52.2-1.7,41.3,2.4,29c1.1-3.3,2.4-7.2,2.8-8.7c2.1-6.5,7.1-16,13.5-25.5c3.1-4.7,4.7-6.7,11.1-14.2c5.6-6.5,7.1-8,10.1-10.3
		c5.2-3.9,10.4-5.4,15.2-4.3l1.6,0.4l1.3-1c3.9-2.9,7.7-4.9,11.7-6c4.4-1.3,14.4-2.5,20.1-2.5c5,0,7.7,0.6,15.5,3.4
		c7.9,2.9,9.9,3.8,16.3,7.8c6.9,4.2,12.1,8.5,19.1,15.4c10.2,10,14.1,15.9,19.7,29.9c5.6,13.9,8.3,21.3,10.6,28.7
		c5.1,16.9,7.5,29,8.2,41.7c0.6,11.6-0.5,20.4-5.3,42.8c-1.7,7.8-3.8,20-4.1,24.2c-0.4,4.7-0.2,11.4,0.5,15.9c0.2,1.1,0.5,3.3,0.8,5
		c1.1,7.3,3.5,15.4,10,33.9c2.5,7,3.6,10.7,3.9,12.8c0.3,1.9,0.3,8,0,10.3c-0.3,2.2-1.4,6.6-2.2,9c-1.9,5.3-4.9,10.9-10.1,18.9
		c-4.1,6.3-5.2,8.1-7,11.6c-1.5,3-2.5,5.8-3,8.2c-0.2,1-0.6,2.5-0.8,3.5c-0.7,3-2,9.5-2.2,11.2c-0.1,1.5-0.2,1.7-0.9,2.1
		C157.7,293.9,157.4,293.7,156.1,291.5z M149.3,208.5c0.3-1.2,0.8-3.1,1-4.1c0.9-4.3,2.2-8.2,6.1-18.4c2.1-5.6,3.5-9.8,3.7-11.3
		c0.1-0.7-0.2-0.2-1,1.9c-0.6,1.6-1.9,4.5-2.9,6.4c-3.4,6.6-5.1,10.8-6.6,16.9c-0.9,3.9-1.1,5.3-1.2,10.1c-0.1,3.3-0.1,3.8,0.1,2.4
		C148.6,211.5,148.9,209.7,149.3,208.5z M137.3,172.5c0.1-6.9,1.9-13,6.8-22.7c1.7-3.4,2.8-6.1,3.1-8c0.1-0.6-0.2-0.2-1.1,1.5
		c-0.7,1.3-1.9,3.3-2.7,4.5c-1.9,2.8-4,6.9-5,9.9c-1.4,4.2-2.1,11.2-1.4,15.4c0.1,0.8,0.2,1.6,0.2,1.7c0,0.2,0,0.3,0.1,0.3
		C137.3,175.1,137.3,174,137.3,172.5z"/>
	<path class="st4" d="M76.7,136.9c-2.1-0.2-6.3-1.3-7.9-2.1c-1.9-0.8-4.1-2.6-4-3.2c0.1-0.5,0.2-0.5,4.9-0.5c3.2,0,5.9,0.1,8.1,0.3
		c5.2,0.5,8.6,0.7,10.4,0.4c8.7-1.4,8.3-1.3,8.3-0.7c0,0.5-1.7,2.1-3.3,3.2C90,136.4,82.7,137.6,76.7,136.9z M65.6,130.7
		c-0.4-0.4-0.1-0.8,1.1-1.4c2.7-1.4,5.7-2.5,7.2-2.8c1.5-0.2,1.7-0.2,4,0.5c2.7,0.8,2.7,0.8,7-0.1c4.1-0.9,5.5-0.7,8.7,0.9
		c1.2,0.6,1.7,1,1.7,1.4c0.1,0.5-0.2,0.7-2.8,1.2c-2.2,0.5-10.7,0.5-15,0.1c-3.9-0.4-7-0.3-10.9,0.2
		C66.1,130.8,65.7,130.8,65.6,130.7z"/>
	<path class="st5" d="M78.8,239.1c-1.9-0.2-8.1-1.5-10.5-2.2c-6.5-2-11.3-4.8-16.9-9.9c-3.3-3-4.6-4.1-5.5-4.5
		c-0.4-0.2-0.8-0.5-0.8-0.7c-0.6-1.5-0.9-20.5-0.5-25.6l0.2-2.2l1.4-1.1c6-4.6,9.6-9.5,11.4-15.5c1.2-3.9,2.1-9.6,2.1-13.2
		c0-1.5,0-1.5,0.6-1.5c0.4,0,1.3,0.5,2.6,1.5c5.1,3.9,6.3,4.7,9,6c4,2,5.2,2.2,10,2.2c4.5,0,7-0.4,9.3-1.4c0.8-0.3,3-1.6,5-2.8
		c2.1-1.3,3.8-2.2,4.1-2.1c0.4,0.1,0.5,0.3,0.6,2.4c0.3,5.4,1.9,11.2,4.3,16c3.3,6.4,6.7,10.4,10.4,11.7c1,0.4,1.1,0.5,2.5,5.2
		c1.2,3.8,2.3,6.9,3.2,8.6c0.6,1.2,0.9,3.7,1,6.9c0,1.6-0.1,1.9-0.8,3.4c-1.1,2.2-3.3,5.4-4.9,7.1c-2.6,2.8-7.5,6.6-10.1,8
		c-2.8,1.4-8.9,3-13.7,3.5C90.7,239.3,80.9,239.3,78.8,239.1z M76.7,167.5c-4.2-1.1-8.3-3.3-15.7-8.5c-2.2-1.6-4.2-2.7-8.4-4.8
		c-6.6-3.2-8.7-4.6-10.8-6.9c-2-2.2-4.6-5.6-5.9-7.8c-8.2-13.8-9.2-15.9-12.2-23.4c-0.7-1.8-2.4-7.1-3.1-9.7
		c-0.7-2.7-1.2-6.6-1.3-10.3c-0.1-3.5,0.3-16.3,0.5-16.5c0.3-0.3,1.2,0.4,1.8,1.3c1,1.5,4.5,5.5,6.1,7c3,2.8,7.3,5.5,10.3,6.6
		c2.6,0.9,5.2,1.3,9.2,1.3l3.6,0l2.5-0.8c2.6-0.9,6.4-2.9,8.9-4.6c2-1.4,5.7-5.2,7.2-7.3c0.7-1,1.6-2.7,2.2-3.8c1-2,2.2-6.3,2.5-8.5
		c0.2-1.3,0.6-1.7,2.4-2.4c2.1-0.7,5.3-1,8.9-0.8l3,0.2l0.3,2.4c0.7,6,2.1,9.6,5.5,14.2c2.6,3.5,6.7,6.4,11.5,8.2
		c2.5,0.9,7,1.7,10.1,1.7c4.5,0,9.8-1,12.3-2.2c2.9-1.5,5.9-4.4,8.3-8c0.8-1.3,1.2-1.7,1.5-1.6c0.4,0.1,0.4,0.2,0.4,5.1
		c-0.2,14.8-0.8,20.7-3.7,33c-1.9,8.1-4.9,14.9-8.9,19.9c-1.5,1.9-6.9,8-8.1,9.1c-2.1,2.1-6.2,5-10,7.1c-3.2,1.8-8.5,5.4-10.9,7.6
		c-2.2,1.9-5.5,3.1-10.3,3.7C82.4,168.4,79.7,168.3,76.7,167.5z M85,138.1c2.6-0.3,6.3-1.4,7.8-2.3c0.5-0.3,2.1-1.5,3.5-2.6
		c1.4-1.1,2.8-2.3,3.1-2.5c0.5-0.4,0.5-0.4,0.1-0.8c-1-1.1-8.1-4.4-10.3-4.8c-1-0.2-4,0.5-6.4,1.5l-1.6,0.7l-1.5-0.8
		c-3.4-1.8-5.3-1.9-9-0.7c-3.2,1-9.5,4.8-9.5,5.6c0,0.7,2.8,2.9,5.9,4.6c2.1,1.1,6.2,2.3,9.1,2.5C78.5,138.7,81.8,138.6,85,138.1z
		 M16.1,117.9c-1.7-1-3.5-2.7-4.2-4c-0.3-0.6-0.4-1.5-0.4-6l0-5.3l-1.2-3.5C9,95.3,8.9,94,9.5,92.3c0.2-0.5,0.5-1.2,0.8-1.6
		c0.6-0.9,3.1-2.5,3.8-2.5h0.6l0,6.2c0,5.9,0,6.4,0.6,9.8c0.7,4.2,1.6,7.7,2.9,11.3c0.5,1.4,0.9,2.7,0.9,2.9
		C19,119.2,17.8,118.9,16.1,117.9z M108.5,115.4c-2.5-1-5.4-3-7.4-5.2c-1-1.1-2.2-2.7-2.7-3.4c-0.9-1.4-0.9-1.4-0.7-0.6
		c0.1,0.5,0.4,1.4,0.7,2.1c1.4,2.9,8.2,7.7,10.9,7.7C109.7,115.9,109.4,115.7,108.5,115.4z M57.8,114.3c2.7-1.5,4.1-2.9,5.3-5.3
		c0.7-1.5,1.4-3.6,1.2-3.8c-0.1-0.1-0.3,0.3-0.5,0.9c-1.3,3.2-5,7.4-7.6,8.7c-0.7,0.4-1.3,0.7-1.3,0.8
		C54.8,115.8,56.4,115.1,57.8,114.3z M142,113.6c0.1-0.8,0.3-2.5,0.5-3.9c0.5-3.6,0.6-9.4,0.3-14.6c-0.5-8.2-0.5-9.8-0.1-9.9
		c0.6-0.2,2.6,0.6,4,1.7c2.9,2.2,3.2,4.5,0.9,9.5c-1.4,3-1.6,4.4-1.8,9.5c-0.1,4.1-0.2,4.9-0.7,6c-0.6,1.7-1.9,3.1-2.7,3.1
		C141.9,115.1,141.9,115,142,113.6z M83.2,111c1.9-0.3,5.4-1.7,6.3-2.5c0.4-0.3,0.6-0.7,0.6-0.7c-0.1-0.1-0.8,0.1-1.7,0.4
		c-2.3,0.7-6.3,1.1-8.4,0.8c-2.9-0.4-4.5-1.3-6.8-3.7c-1.3-1.3-1.9-1.6-2.4-1c-0.6,0.6-0.3,1.3,1.1,2.7c2.1,2.2,3.7,3.2,6.9,3.9
		C80.5,111.3,81.3,111.3,83.2,111z M87.8,102.4c0.6-0.6,0.5-1.4-0.2-1.8c-1.1-0.5-2.2,0.9-1.3,1.9C86.8,103,87.1,103,87.8,102.4z
		 M42.7,93.3c-4.4-1.1-10.3-4.4-13.2-7.3c-2.3-2.3-5.2-6.6-6.9-10c-1.6-3.1-2.4-7.4-2.4-12c0-2.5,0.2-3.2,1.4-4.1
		c1.5-1.3,5.7-2.9,9-3.5c2.1-0.4,8.7-0.9,11.4-0.9c3.8,0,10,0.8,13.6,1.7c5.6,1.5,8.4,2.7,12,5.1c4.3,2.9,4.7,3.4,4.7,5.9
		c0,6.9-3,13.5-8.5,18.6c-3.5,3.3-6.8,5.1-11.1,6C48.5,93.7,44.9,93.9,42.7,93.3z M111.7,91.5c-5.2-1.1-8.3-2.3-11.4-4.4
		c-4.3-2.9-8.7-9.5-9.4-14.2c-0.5-3.3-0.1-7,1.1-9.1c1.6-2.9,5.8-5.4,12.2-7.6c5.3-1.8,8.4-2.3,14.1-2.3c7.4,0,13.6,1.1,17.8,3.1
		c2.7,1.3,3.9,2.2,4.5,3.5c0.6,1.3,0.5,2-0.3,5.1c-2.7,10.9-4.2,14.1-8.8,20c-2.9,3.6-4.1,4.4-8.3,5.3
		C119.7,91.8,114.1,92,111.7,91.5z M51.2,74.2c1.7-0.7,3-2.5,2.7-3.8c-0.3-1.2-0.2-1.2,4.4-1.4c5.3-0.2,5.8-0.3,3.6-1
		c-1.5-0.5-2-0.5-11.4-0.7c-8-0.1-10.3-0.3-12.6-0.6c-1.5-0.2-3-0.5-3.3-0.6c-0.2-0.1,0.1,0.2,0.8,0.5c2,1.1,1.7,2-0.8,2.1l-1.2,0
		l1,0.2c0.6,0.1,3.5,0.3,6.6,0.3c3.1,0,5.8,0.1,5.9,0.1c0.2,0,0.3,0.4,0.3,1.1c-0.1,1.8,0,2,0.7,2.9C49.2,74.6,49.8,74.8,51.2,74.2z
		 M115.6,72.9c1.1-0.8,1.7-2.3,1.3-3.3c-0.1-0.3-0.2-0.8-0.1-1c0.1-0.4,0.6-0.4,5.5-0.5c4-0.1,5.6-0.2,6.3-0.5l1-0.3l-2.5,0
		c-2.4,0-2.5,0-2.5-0.5c0-0.5,0.4-0.7,2.8-1.2c1-0.2,1.7-0.4,1.7-0.5c-0.1-0.1-1.5,0.1-3.1,0.4c-2.3,0.4-4.9,0.5-10.6,0.7
		c-8.3,0.2-10.7,0.5-12.3,1.2l-1.1,0.5l2.7-0.1c1.5,0,3.4,0,4.3,0.1l1.6,0.2V70c0,2.1,0.2,2.5,1.8,3.3
		C113.4,73.7,114.7,73.6,115.6,72.9z M74.4,63.6c-1.6-1.4-6.1-4.2-9.5-5.9c-7-3.5-11.8-4.6-20.8-5c-6.1-0.2-13.8,0-17.6,0.6
		c-1.2,0.2-2.6,0.3-2.9,0.3h-0.7L22.6,52c-0.1-0.9-0.2-3.4-0.3-5.6c-0.2-5,0-6.3,2.3-19.7c1.8-10.6,2.7-13.3,7.6-22.1
		c4.2-7.6,5.7-9.8,9.6-13.8c2.3-2.4,9.1-8.3,13.1-11.5c1-0.8,2.4-2,3-2.8c0.7-0.7,1.3-1.3,1.4-1.3c0.1,0,0.7,0.5,1.3,1
		c1.7,1.7,4.1,2.6,8.6,3.5c7.9,1.5,20.2,4.4,26.5,6.2c3.5,1,8.3,3.4,12,5.9c4.2,2.8,12,9.1,14.9,12c3.5,3.5,7.9,8.4,10.2,11.3
		l1.9,2.3l-0.1,2.6c-0.1,1.4-0.2,4.3-0.4,6.4c-0.4,5.8-0.3,11.9,0.1,15.8c0.4,3.6,1,5.9,2.3,8.5c0.8,1.7,0.9,2.1,0.6,2.3
		c-0.2,0.1-6.6-0.8-8.5-1.2c-2.3-0.5-8.1-0.8-12.4-0.5c-8.6,0.5-15.1,2.6-21.3,6.7c-5.5,3.7-6.6,4.4-7.5,4.8c-1.4,0.6-4.1,1-8.4,1.2
		l-3.7,0.2L74.4,63.6z M68.6,51.3c0.9-0.9,0.2-2-2.2-4.2c-1.5-1.3-4.8-3.2-5.7-3.2c-0.2,0-0.9-0.2-1.6-0.5c-2-0.8-5.5-1.2-11.3-1.2
		c-5.9,0-6.9,0.1-10.7,1.5c-1.7,0.6-2.3,1-4.2,2.5c-1.2,1-2.4,2.1-2.7,2.5l-0.5,0.7l1.7-0.9c2-1,4.8-1.9,7.4-2.3
		c4.1-0.7,11.4-0.6,16.8,0.1c2.8,0.4,5.8,1.7,8.9,3.9c1,0.7,2.6,1.4,3.5,1.5C68,51.8,68.3,51.6,68.6,51.3z M98.7,48.1
		c4.7-1.8,5.2-1.9,7.5-2.2c3.3-0.3,13.3-0.1,16.1,0.3c2,0.3,5.4,1.2,6.8,1.7c0.3,0.1,0.6,0.2,0.6,0.1c0-0.2-2.8-2.2-4.1-2.9
		c-2.8-1.6-5.6-2.3-10.9-2.9c-4.4-0.5-7.9-0.4-12.2,0.4c-4.6,0.8-6.1,1.3-8.3,2.8c-1.8,1.2-2.8,2.2-2.8,2.7c0,0.6,1.1,1.7,1.7,1.7
		C93.4,50,95.9,49.1,98.7,48.1z"/>
</g>
<g id="outline" transform="matrix(3.8689,0,0,3.8689,418.718,184.938)">
	<path class="st6" d="M8.8,191.7c-2.1-0.1-7.2-0.6-9.9-1c-6.1-0.9-8.4-1.5-16.5-4.4c-2.4-0.9-5.2-1.8-6.3-2.1
		c-1.1-0.3-2.2-0.6-2.6-0.8c-0.4-0.1-1.3-0.5-2.1-0.8c-0.8-0.3-2.4-1.1-3.6-1.8c-1.2-0.7-3.4-1.9-4.9-2.7c-4-2.1-7.7-4.2-8.8-4.9
		c-0.5-0.3-1.4-0.9-2-1.3c-0.6-0.4-1.5-1-2.1-1.4c-0.6-0.4-1.6-1.1-2.2-1.4c-0.6-0.4-1.4-1-1.9-1.4l-0.7-0.8l-0.2-2.4
		c-0.2-2.5-0.1-4.1,0.2-6.7c0.3-2.1,1.1-6.4,1.9-10.6c0.4-2,0.8-3.8,0.8-3.9c0-0.2-0.2-0.4-0.6-0.6c-0.8-0.4-1.2-0.9-1.2-1.5
		c0-0.7,0.3-1.2,1.7-2.3c0.7-0.6,1.3-1.1,1.3-1.3c0-0.1,0.2-1,0.4-1.8l0.4-1.6l-0.2-1.6c-0.2-1.2-0.2-2.4-0.2-5.3
		c0-3.8,0.1-4.9,0.7-8.6c0.4-2.7,0.8-4,2.1-7.5c3.1-8.1,6.1-16.8,7.2-20.8c1.1-3.8,1.4-6.1,1.5-10.1c0-1.9,0-2.3-0.4-4.4
		c-0.2-1.3-0.6-3.5-0.9-4.9c-0.2-1.4-0.6-3.5-0.7-4.5c-0.5-3-0.6-4.3-0.8-8.9c-0.1-4.9,0-7.8,0.5-13c0.4-4.3,1-8.2,1.7-11.9
		c0.8-4.4,1.3-6.1,4.3-15.2c1.6-4.8,4.2-10.9,6-13.8c1.5-2.5,3.3-5.2,4.5-6.8c3.6-4.8,4.4-5.9,5.4-7.1c2-2.4,4.3-4.9,5.5-5.9
		c2-1.7,4.3-3.1,6.2-3.9c2.1-0.8,4.8-1,6.3-0.4l0.8,0.3L0.1-21c2.1-1.8,5.6-3.4,9.2-4.2c2.7-0.6,7.2-1.3,9.5-1.5
		c3.9-0.3,5.9,0.1,11.9,2.1c3.7,1.2,5.3,1.9,7.8,3.3c6,3.4,10.3,6.6,15.7,12.1c5.4,5.4,8.1,9.5,11.4,17.6
		c5.3,12.8,6.9,17.5,9.2,26.3c1,3.9,1.6,6.9,2.1,10.5c0.6,4.1,0.7,5.7,0.7,9.7c0,6.8-0.7,12.1-2.9,21.8c-1.5,6.5-2.8,13.4-3.1,16.4
		c-0.3,3.3-0.1,6.7,0.6,11.1c0.9,5.3,2.3,10.4,5,17.8c1.5,4,3,8.5,3.4,10.1c0.5,1.9,0.7,4.5,0.5,6.9c-0.1,1.7-0.3,2.8-1,5.3L80,145
		l1.2,2.2c2,3.6,2.5,4.6,3.3,7.4c0.5,1.7,1.1,4.9,1.5,7.1l0.2,1.6l-0.5,0.6c-1,1.2-3.2,3.4-4.8,4.5c-0.8,0.6-2.8,2.2-4.4,3.4
		c-3.4,2.7-6.5,4.9-8.2,5.8c-3.3,1.8-9.3,4.5-13.6,6c-1.1,0.4-3,1.1-4.4,1.6c-4,1.5-7.5,2.4-11.2,3c-0.8,0.1-2.1,0.4-2.9,0.6
		c-7.1,1.6-16.2,2.7-23.6,2.8C11,191.7,9.3,191.7,8.8,191.7z M16.6,188.6c0.8,0,1.4-0.1,1.5-0.2c0-0.1-0.5-0.7-1.2-1.3
		c-2.4-2.2-8.2-8.5-10.6-11.4c-5.6-7-11.3-17.2-14.5-26.2c-2.9-8.2-4.1-16.8-3.3-24c0.5-5,1.4-9.1,2.5-12c0.7-1.8,2-4.4,2.9-5.8
		c1.1-1.6,1.6-1.9,2.1-1.4c0.3,0.3,0.3,0.5-0.2,1.8c-1.1,2.5-1.4,3.4-1.8,4.6c-0.2,0.7-0.3,1.4-0.3,1.4c0.2,0.2,1.4-1.6,2.1-3
		c1.1-2.3,1.7-4.6,2.1-8.1c0.1-1.2,0.1-1.5,0-1.6c-0.5-0.3-5.4,0-7,0.4c-1.2,0.3-3.5,1.4-5,2.4c-2.2,1.5-4.1,3.1-6.7,5.7
		c-3.4,3.5-4.1,4.3-8.8,10.7c-1.9,2.6-5.1,6.4-7.3,8.7c-0.8,0.8-2.9,2.8-4.8,4.5c-4.2,3.8-4.8,4.3-6.6,5.7c-0.8,0.6-1.5,1.1-1.5,1.2
		c0,0.2,3.3,0.9,6.9,1.5c6.2,1,12.8,1.1,16.9,0.1c1.1-0.2,1.5-0.2,2,0.2c1.1,0.8,0.5,2.7-1.6,5.5c-1.2,1.6-4.5,5.5-5.9,7
		c-0.7,0.8-1.3,1.5-1.3,1.5c0,0,0.7,0.5,1.5,1c0.8,0.5,2,1.4,2.6,1.9c1.2,0.9,8.4,7.9,11,10.7c2.2,2.3,3.6,4.2,4.3,6
		c0.4,1,1.8,5.3,2.5,7.5c0.3,0.9,0.5,1.7,0.6,1.8c0.1,0.1,0.7,0.3,1.4,0.4c10.8,2,12.6,2.3,16.6,2.6
		C8.5,188.8,15.1,188.7,16.6,188.6z M23.5,188.2c1.5-0.1,2.8-0.2,2.9-0.3c0.1-0.1,0.3-1.8,0.6-3.8c0.8-5.4,1-6.6,1.7-9.6
		c1.4-5.6,2.5-9,4.5-13.9c2.6-6.5,4.5-13,5.1-17.9c0.1-0.9,0.2-1.6,0.1-1.6c0,0-0.4,0.3-0.8,0.7c-1,1.1-3.1,3.2-4.3,4.1
		c-1.2,1-3.3,2.1-5,2.9c-3.2,1.3-8.3,2.1-12,2c-5.1-0.2-8.8-0.8-11.8-1.7c-3.2-1.1-5.7-2.3-8.5-4.4c-1-0.7-1.8-1.3-1.8-1.2
		c-0.1,0.1,0.6,2.7,1.4,5.2c2.3,7.4,5.3,13.8,9.4,20.2c1.3,2,4.5,6.6,6.2,8.8c3.1,4.1,8.9,10.7,9.4,10.7
		C20.7,188.3,22,188.3,23.5,188.2z M30.4,187.3c0.6-0.1,1.5-0.3,2.1-0.3c0.6-0.1,1.7-0.3,2.4-0.4c0.8-0.1,1.7-0.3,1.9-0.3
		c0.5-0.1,0.6-0.2,2.4-3c1-1.6,2.3-3.6,2.8-4.5c0.5-0.9,1.5-2.5,2.2-3.8c0.7-1.2,2-3.3,2.7-4.8c1.5-2.8,2.7-4.7,3.3-5.3
		c0.4-0.4,0.4-0.4,0.3-1.2c-0.3-1.6-0.7-4.5-0.8-6.6c-0.2-2.6-0.1-9.5,0.2-12c0.1-1,0.2-1.8,0.2-1.9c0-0.1-0.2-0.3-0.6-0.5
		c-1.2-0.7-3.9-3.4-6-6c-0.3-0.4-0.6-0.7-0.7-0.7c-0.1,0-0.1,0.5-0.2,1c-0.3,2.7-1.1,8.4-1.6,10.4c-0.8,3.6-2.7,9.4-5,15.2
		c-1.1,2.9-2.9,8.1-4.2,12.5c-0.6,1.8-1.2,3.9-1.4,4.6c-0.5,1.5-1,3.4-1.5,5.9c-0.2,1.1-0.4,2-0.4,2
		C28.6,187.6,29.4,187.5,30.4,187.3z M46,184.2c1.8-0.6,4.5-1.4,6-1.8c2.5-0.7,4.9-1.7,6.3-2.4l0.5-0.3l-2.7-4.1
		c-1.5-2.2-3-4.7-3.3-5.3c-0.3-0.7-0.7-1.2-0.8-1.2c-0.1,0-0.8,1.4-1.5,3.1c-2.3,5-2.8,6-6.3,10.5c-1,1.3-1.8,2.4-1.8,2.5
		C42.3,185.3,42.9,185.2,46,184.2z M-14.3,184c-1.3-3.3-3.1-6.5-5.1-9.3c-1.2-1.6-5.6-6.4-9.1-10c-2.4-2.4-3.6-3.5-4.8-4.4
		c-2.4-1.7-2.9-2.2-3.2-2.8c-0.6-1.3-0.3-1.9,2.7-4.9c2.3-2.4,6-6.6,6-6.9c0-0.1-0.2-0.1-0.4-0.1c-0.2,0-1.3,0.1-2.3,0.2
		c-3.4,0.3-9.3-0.2-15.4-1.4c-1.2-0.2-2.2-0.4-2.2-0.3c-0.1,0.1-0.2,1-0.4,2.1c-0.2,1.1-0.4,2.8-0.6,3.7c-1,6.1-1.6,12.1-1.6,15.3
		l0,1.1l2.1,1.7c2.5,2.1,3.6,2.9,6.3,4.6c2.2,1.4,6.7,3.8,6.8,3.7c0,0-0.1-0.5-0.2-1.1c-1.8-6.4-3.1-12.9-2.8-14.2
		c0.2-1.1,1.3-1.4,2-0.6c0.7,0.8,1.7,4.2,2.3,8.2c0.4,2.8,1.9,9.2,2.1,9.5c0.2,0.2,5.8,2.5,9.8,3.9c3.8,1.4,8,2.8,8.3,2.6
		C-14.1,184.7-14.2,184.4-14.3,184z M61.4,178.6c0.2-0.1,0.3-0.4,0.3-1c0.2-2.1,1.8-9.5,2.4-11.3c0.8-2.3,2.2-4.9,5.3-9.6
		c2.6-4,3.5-5.5,4.8-8.2c2.7-5.7,3.7-11,2.7-15.6c-0.3-1.5-1.7-5.6-3.2-9.7c-2.9-7.8-4.7-14.6-5.5-20.1c-0.3-2.4-0.6-5.9-0.6-7.5
		c0-1.4,0.4-5.3,0.7-7.4c0.8-4.8,1.2-6.9,3.1-15.8c0.7-3.5,1.6-8.5,1.9-11.2c0.3-2.9,0.3-9.7,0-12.8c-0.9-8.5-3.5-19.1-7.3-29.2
		C61,6.1,58.6,1.1,55-3.4c-1.5-1.9-6.1-6.4-8.5-8.5c-3.8-3.2-8.3-6.3-12-8.1c-2.8-1.4-8.7-3.5-11.2-4c-1.3-0.3-6-0.3-8.5,0
		c-6.7,0.7-9.7,1.7-13.4,4.3c-1.8,1.3-1.7,1.3-2.6,1c-3.1-0.9-6.7,0.3-10.6,3.7c-1.2,1-7.8,8.6-9.5,11c-1.3,1.8-4,5.9-5.3,8.1
		c-0.9,1.6-3.3,6.3-3.9,7.6c-0.2,0.4-0.6,1.6-0.9,2.6c-0.3,1-1.1,3.3-1.6,5c-2.2,6.4-3.5,12.5-4.6,20.7c-1.2,8.6-1.4,18.3-0.6,25
		c0.2,1.6,0.4,4,0.6,5.2c0.9,9.6,2.1,14.4,4.5,19.5c1.3,2.7,3.2,6.9,3.1,7c-0.1,0.1-1.2-0.9-1.8-1.5c-1.2-1.3-2.3-3.1-3.6-6
		c-0.5-1.1-0.9-1.9-0.9-2c0,0-0.1,0.2-0.1,0.6c-0.6,4.9-1.3,7.7-2.8,11.6c-0.4,1.2-1,2.6-1.2,3.3c-0.2,0.6-0.7,2-1.1,3.1
		c-1.6,4.3-2.9,8.7-3.7,12.7c-0.2,0.8-0.5,2.2-0.7,3.1c-0.3,1.1-0.4,2-0.4,2.8c0,1.4,0,1.4,1.4-1c3.6-6.1,6.9-9.5,11.3-11.5
		c2-0.9,3.1-1.3,5.8-1.8c1.3-0.3,2.5-0.5,2.6-0.6c0.1-0.1,0.9-0.7,1.7-1.5c2.7-2.6,4.6-4.2,7.1-5.8c1.8-1.2,4.7-2.6,6.2-3
		c1.7-0.5,4.4-0.7,6.5-0.5c0.9,0.1,1.6,0.1,1.7,0.1c0,0,0.1-0.2,0.1-0.3c0.1-0.3-0.1-0.4-1.8-1.3c-1-0.6-2.8-1.5-4-2
		c-3.2-1.5-5.1-3.1-7.1-5.8c-0.7-0.9-4.2-6.6-4.9-8c-0.8-1.4-2.3-4.7-2.9-6.2c-0.2-0.5-0.4-0.8-0.6-0.9c-0.2-0.1-1-0.4-1.9-0.7
		c-2.2-0.9-2.5-1-3.2-1.8c-1.1-1.2-1.2-1.7-1.4-5.6c-0.1-3-0.1-3.4-0.5-4.9c-0.7-2.6-0.5-4.2,0.5-5.7c0.7-1,2.4-2.1,3.4-2.1
		c0.2,0,0.5,0,0.5-0.1c0-0.1,0.2-1.1,0.4-2.3c0.2-1.2,0.4-2.9,0.5-3.8c0.3-2,0.3-2.1,0-3.3c-0.4-1.4-0.4-5.2-0.2-6.7
		c0.3-1.5,0.8-2.3,1.6-2.7l0.6-0.3l-0.1-1.4c0-0.8-0.2-2.2-0.3-3.1c-0.4-2.8-0.2-5.9,0.8-12.3c1.1-7,1.6-8.6,3.6-12.7
		c2.2-4.3,4.8-8.1,7.3-10.5c1.9-1.8,5.6-4.6,8.2-6.1c1.4-0.8,2.9-1.9,3.5-2.5c0.4-0.4,0.4-0.5,0.3-0.8c-0.2-0.8-0.2-1.7,0.1-2
		c0.1-0.1,0.4-0.3,0.5-0.3c0.3,0,0.7,0.5,0.8,1c0.1,0.7,0.6,1.6,1,2c0.5,0.5,1.5,0.8,3.4,0.9c4,0.4,8.6,0.9,10.4,1.1
		c6.7,0.9,8.3,1.3,11.3,3.1c1.7,1,8.9,6.4,11.3,8.3c2.3,1.9,5,4.9,6.3,7C46,6.9,46.1,7,46.1,6.7c0.1-0.5-0.6-2.8-1.2-4.2
		c-0.8-1.8-1.8-3.4-3.1-4.8c-1.1-1.2-1.2-1.3-1-1.7c0.2-0.4,0.7-0.2,1.8,0.7c3.2,2.8,5.4,6,6.3,9c0.6,2.2,0.7,5.3,0.3,9.6
		c-0.2,2.2-0.3,3.6-0.3,6.9c0,3.8,0,4.3,0.3,5.9c0.3,1.9,1,4.2,1.7,5.7c0.3,0.8,0.5,1,1.1,1.4c0.9,0.6,1.3,1.2,1.3,2
		c0,0.8-0.4,2.8-1,4.8c-0.5,1.9-0.7,4.3-0.6,7.4l0.1,2.3l0.8,0.2c1.9,0.5,3.7,1.8,4.4,3.3c0.3,0.6,0.4,0.9,0.4,1.9
		c0,1.2-0.2,1.7-1.2,4l-0.5,1.2l0,2.9c0,2.3-0.1,3-0.3,3.7c-0.5,1.9-1.5,3.3-2.4,3.8c-0.2,0.1-0.7,0.3-1.1,0.3l-0.7,0.1l-0.5,1.9
		c-1.2,4.5-2.3,6.9-4.2,9.8c-2.3,3.5-4.7,6.4-7.2,8.7l-1.6,1.5l0,6.5c0,6.8,0,7.3,0.7,11.2c0.6,3.7,3,12,4.4,15.1
		c0.7,1.6,2.9,4.8,4.9,7.3c0.5,0.6,1.6,1.8,2.5,2.8c0.9,1,2,2.1,2.2,2.6c0.5,0.8,0.5,0.8,0.4,1.8c0,0.5-0.2,1.6-0.3,2.4
		c-0.2,1.1-0.2,2.3-0.2,5c0,5.1,0.3,7.3,1.3,11.1c0.3,1.1,0.7,2.6,0.9,3.4c0.2,0.7,0.8,2.9,1.5,4.8c1.2,3.6,2.1,5.7,4,8.7
		C60.7,178.7,60.9,178.8,61.4,178.6z M66.2,176.2c3.5-1.9,7.5-4.6,10.8-7.4c0.8-0.6,2-1.6,2.7-2.2c0.7-0.5,1.4-1.1,1.5-1.2l0.3-0.2
		l-0.5-1.7c-0.3-1-0.7-2.5-0.9-3.5c-0.5-2.4-0.8-4-1.2-5.4c-0.5-1.8-1.2-3.5-1.3-3.5c-0.1,0-0.3,0.3-0.5,0.7
		c-0.7,1.3-2.8,4.7-4.9,7.9c-4.6,6.9-6.3,10.5-7.7,15.9c-0.3,1.2-0.4,1.8-0.3,1.8C64.2,177.2,65.2,176.7,66.2,176.2z M22.4,145.6
		c3.3-0.6,6-1.4,7.6-2.3c1.3-0.8,3.8-2.7,5.1-4c1.2-1.2,2.8-3.5,3.5-4.9l0.4-0.9l-0.1-1.8c-0.1-1.8-0.1-1.8-0.8-3.4
		c-0.6-1.3-2.1-5.9-2.4-7.1c-0.1-0.3-0.3-0.5-0.8-0.7c-1.8-0.8-3.2-2.1-4.6-4.3c-2.5-3.9-3.9-7.9-4.2-12.3c0-0.7-0.1-1.4-0.2-1.5
		c-0.1-0.1-0.5,0.1-1.4,0.7c-3.5,2.2-4.7,2.7-7.3,3c-1.8,0.2-4.6,0.1-6-0.3c-2.3-0.7-4.6-2-6.9-3.8c-1.5-1.2-2.3-1.8-2.4-1.7
		c0,0-0.1,1-0.2,2c-0.2,2.9-0.5,4.8-1.3,7.1c-1,3.2-3.4,6.4-6.3,8.6l-1.2,0.9l-0.1,0.9c-0.3,2.8-0.3,11.3,0.1,14.2
		c0.1,1.2,0.2,1.5,0.4,1.5c0.4,0.1,1.5,1,3.3,2.7c2.9,2.6,4.8,3.9,7.6,5.1c2.3,1,6,1.9,8.9,2.3C14.6,145.9,20.9,145.8,22.4,145.6z
		 M-42.2,130.1c4.3-4.2,7.4-7.7,11.4-13.2c1-1.4,2.1-2.9,2.4-3.3c0.4-0.5,0.5-0.7,0.3-0.7c-0.4-0.1-2.3,0.5-3.6,1.1
		c-3.5,1.7-5.9,3.9-8.7,8.3c-1.9,2.9-4.2,7.5-4.6,9.1c-0.3,1.2-0.3,1.5-0.2,1.5C-45.1,133-43.8,131.7-42.2,130.1z M34.3,113.8
		c-0.2-1.7-1.2-3.9-2.6-5.8c-0.5-0.7-0.1-1.3,0.7-1c0.2,0.1,0.6,0.3,0.8,0.6c0.3,0.3,0.5,0.4,0.5,0.2c0-0.1,0.1-1.5,0.2-3.1
		c0.1-1.6,0.1-3.2,0.1-3.5c0-0.5,0-0.5-0.5-0.6c-0.7-0.1-2.7,0.1-3.2,0.3c-0.3,0.1-0.3,0.2-0.3,0.8c0,1.8,1.1,6.9,1.9,9
		c0.7,1.9,2.3,4.7,2.5,4.5C34.4,115.1,34.4,114.5,34.3,113.8z M18.4,102.5c2.5-0.4,4-1.1,5.7-2.6c1.4-1.2,3.7-2.7,5.8-3.9
		c3-1.7,5-3.1,6.4-4.5c1.6-1.5,4.7-5.3,5.9-7.1c1.1-1.7,2.6-4.7,3.3-6.6c1.2-3.5,2.7-11.2,3-15.2c0.1-1.2,0.2-3.8,0.2-5.9
		c0-2.1,0.1-4,0.2-4.3c0-0.3,0-0.5,0-0.5c-0.1,0-0.4,0.4-0.8,1c-1.3,1.9-3.3,3.7-4.9,4.6c-1.4,0.7-5.1,1.4-7.7,1.4
		c-1.3,0-3.9-0.4-5.4-0.8c-6.3-1.9-10.6-7-11.2-13.5c-0.1-0.8-0.2-1.6-0.3-1.7c-0.1-0.2-1.3-0.2-3.3-0.2c-1.2,0-3,0.4-3.8,0.8
		c-0.6,0.3-0.6,0.3-0.8,1.1c-1,4.9-1.9,6.8-4.6,9.6c-1.5,1.6-2.7,2.5-4.6,3.6c-2.9,1.6-4.5,2.1-7.3,2.1c-3,0-5.3-0.5-7.3-1.5
		c-1.1-0.6-3.3-2.1-4.3-3c-1-0.9-2.9-3-3.9-4.3c-0.5-0.7-0.7-0.9-0.8-0.7c-0.1,0.1-0.1,2.5-0.2,5.2c-0.1,5.8,0,7.5,0.8,10.5
		c1.5,5.8,3.3,9.9,7.5,16.8c3.3,5.4,5.1,7.8,7.1,9.2c0.5,0.3,2.4,1.3,4.2,2.2c2.8,1.4,3.7,1.9,5.9,3.4c3.7,2.6,6.2,4,7.8,4.5
		C13.3,103,15,103,18.4,102.5z M-24.1,71.3c-0.8-2.3-1.2-4-1.5-5.9c-0.5-3.2-0.6-4.2-0.5-7.2c0.1-3.4,0.1-3.3-1.2-2.3
		c-0.6,0.4-0.9,0.8-1.1,1.3c-0.5,1-0.4,1.8,0.3,4.1c0.8,2.6,0.9,3.2,0.8,6c-0.1,2.4-0.1,2.4,0.3,3c0.5,0.8,1.5,1.8,2.5,2.3
		c0.5,0.3,0.9,0.5,0.9,0.4C-23.5,73-23.8,72.2-24.1,71.3z M52.3,69.9c0.6-1,0.8-1.6,0.9-4.6c0.1-3.2,0.2-3.8,1.3-6.2
		c1.1-2.3,1-3.5-0.3-4.6c-0.6-0.5-1.9-1.2-2.2-1.2c-0.1,0-0.1,0.5,0,2.2c0.1,1.2,0.1,4.4,0.1,7c0,3.9,0,5.1-0.2,6.3
		c-0.1,0.8-0.2,1.5-0.2,1.6C51.6,70.7,52,70.4,52.3,69.9z M-5.1,57.6c2.3-0.3,4.9-1.1,6.3-2.1c3.5-2.3,6.2-6,7.1-9.7
		c0.4-1.5,0.5-3.6,0.3-4.1c-0.3-0.7-3.1-2.8-5.1-3.7c-4-1.9-10-2.9-15-2.6c-3.8,0.3-5.7,0.6-8,1.5c-1.3,0.5-2.2,1.2-2.5,1.8
		c-0.2,0.4-0.2,0.7-0.2,2.1c0.2,3.7,1,5.9,3.3,9.4c2,3,3.5,4.4,6.8,6C-9.1,57.7-8.1,57.9-5.1,57.6z M37.3,56.6
		c1.9-0.2,3.7-0.6,4.6-1c1.8-0.8,4.8-4.8,6.1-8.1c0.6-1.4,1.7-5.5,2.1-7.4c0.2-1,0.2-1.1-0.1-1.7c-0.7-1.6-4.3-3.1-8.8-3.7
		c-2.1-0.3-6.6-0.3-8.2-0.1c-1.5,0.2-4.3,1-6.2,1.7c-4.8,1.9-6.5,3.9-6.4,7.6c0,2,0.7,3.9,2.3,6.2c2.1,3.2,5.2,5.2,9.3,6
		C34.8,56.8,35.2,56.8,37.3,56.6z M15.9,39.7c0.8-0.1,1.7-0.3,2.1-0.5c0.4-0.2,1.8-1.1,3.2-2c1.4-0.9,3.1-2,3.9-2.4
		c3.6-1.8,7.5-2.6,12.7-2.6c2.7,0,3.9,0.1,7.5,0.7c1.4,0.2,2.5,0.4,2.6,0.4c0,0-0.2-0.5-0.4-1.1c-1.3-3-1.8-7.3-1.4-14
		c0.1-2.1,0.2-4.2,0.3-4.8c0-0.5,0-1.1-0.1-1.2c-0.6-1.1-6.7-7.9-8.4-9.3C36,1.2,32-2,30.3-3c-2.3-1.6-4.5-2.7-6.5-3.3
		C21.2-7.3,15.1-8.8,10-9.8c-5.9-1.2-7.1-1.6-8.2-2.6c-0.3-0.3-0.5-0.5-0.6-0.5c-0.1,0-0.4,0.3-0.8,0.7c-0.4,0.4-1.3,1.2-2,1.7
		c-4.7,3.8-8.3,7.1-9.8,9.2c-0.9,1.3-2.3,3.6-4,6.6c-2.5,4.6-3.1,6.4-4.1,12.3c-1.5,8.8-1.6,9.4-1.4,13c0.1,1.5,0.2,2.9,0.2,2.9
		c0,0.1,0.6,0,1.2-0.1c3.3-0.5,12.1-0.6,15.5-0.1c2,0.3,4.3,0.9,5.9,1.5c2.7,1.1,7,3.5,8.5,4.8L11,40l1.7-0.1
		C13.7,39.9,15.1,39.8,15.9,39.7z M55,133c-0.2-0.5-0.3-3.6-0.2-5.8c0.2-4.8,1.6-9.4,4.6-15.2c1.2-2.3,2.3-5,2.7-6.9
		c0.2-0.7,0.4-1.3,0.4-1.3c0.1,0,0.1,0.7,0,1.6c-0.1,2.2-0.5,3.7-2.6,9.1c-1.6,4.2-2.9,7.9-3.3,9.7c-0.2,0.9-0.5,2.2-0.7,3
		c-0.4,1.6-0.7,3.9-0.7,5.1C55.4,133.1,55.2,133.4,55,133z M48.7,109.4c-0.4-0.5-0.8-2.7-0.9-4.9c-0.2-5.3,1.1-9.5,4.2-14.1
		c0.8-1.2,1.8-3.1,2.4-4.5l0.3-0.7l0.1,0.5c0.1,0.6-0.2,2.4-0.5,3.5c-0.2,0.5-0.8,2-1.5,3.4c-3.1,6.3-4.3,10.8-3.9,15.2
		c0.1,0.9,0.1,1.7,0.1,1.7C48.9,109.5,48.8,109.5,48.7,109.4z M10.7,85.6c-1.4-0.2-3.5-0.8-4.6-1.4c-1.9-1-4-2.5-4-3
		c0-0.1-0.2-0.4-0.4-0.7C1,79.7,1.1,79.2,2,79.2c0.8,0,2.5-0.5,3.3-1c1.1-0.6,2.6-1.2,3.9-1.5c1.5-0.3,2.8-0.1,4.3,0.6l1.1,0.5
		l0.6-0.3c1.1-0.5,2.9-0.9,3.7-0.9c1.1,0,2,0.3,4.1,1.3c1.1,0.5,2.2,1,2.8,1.1c0.6,0.1,1.1,0.3,1.1,0.4c0,0.1-0.1,0.4-0.2,0.5
		c-0.4,0.4-3.9,3.2-4.7,3.8c-0.5,0.3-2.2,1-3.5,1.3C16.7,85.6,12.6,85.9,10.7,85.6z M18.2,83.6c2.2-0.5,3.7-1.3,4.7-2.4
		c0.4-0.4,0.3-0.4-1.5-0.1c-1.3,0.3-1.8,0.3-4.9,0.3c-1.9,0-4-0.1-4.6-0.2c-0.6-0.1-2.4-0.2-4-0.2l-2.9,0l0.5,0.5
		c1,0.9,2.6,1.5,5.2,2.1C12.4,84.1,16.5,84,18.2,83.6z M19.7,80.2c0.8-0.1,1.8-0.3,2.2-0.4l0.8-0.2l-1.2-0.6
		c-1.6-0.8-2.5-0.8-4.8-0.4c-2.1,0.5-3.2,0.5-4.6,0c-1-0.3-1.2-0.4-2-0.2C9.3,78.5,6.5,79.6,6,80c-0.2,0.2-0.1,0.2,0.6,0.1
		c1.2-0.1,4.8-0.1,7.6,0.1C17.7,80.3,18,80.3,19.7,80.2z M-4.2,72.2c0.5-0.2,1.6-0.7,2.4-1.1c1.4-0.7,1.7-0.9,2.9-2.1
		c1.4-1.4,2.1-2.5,2.9-4.5c0.3-0.6,0.5-1.1,0.5-1c0,0.1,0,0.8,0,1.5c-0.1,1.2-0.2,1.5-0.7,2.6C3,69.2,2.1,70.1,0.3,71
		c-1.4,0.7-2.5,1.1-3.9,1.4C-5,72.7-5.2,72.6-4.2,72.2z M30.6,71.8c-1.9-0.5-5.1-2.9-5.9-4.4c-0.6-1.1-1-3.9-0.6-3.9
		c0.1,0,0.1,0.1,0.1,0.2c0,0.3,1,2.2,1.5,2.9c1.3,1.8,3.1,3.3,5.1,4.2c0.8,0.4,1.1,0.4,2.6,0.5c1.6,0.1,1.7,0.1,1.2,0.3
		c-0.5,0.2-0.9,0.2-2.7,0.4C31.6,72,31,71.9,30.6,71.8z M12.4,68.8c-1.5-0.4-2.4-1-3.5-2.1c-1.2-1.2-1.4-1.7-1-2.3
		c0.5-0.8,1.2-0.6,2.5,0.8c0.9,0.9,1.7,1.4,2.9,1.7c1.5,0.4,4.1,0.2,5.9-0.4c1-0.3,1-0.3,1.2-0.1c0.4,0.6-0.9,1.6-3,2.3
		C16.2,69,13.4,69.1,12.4,68.8z M17.2,63.7c-0.3-0.3-0.3-0.9-0.1-1.4c0.3-0.5,1.2-0.6,1.7-0.2c0.3,0.3,0.3,1.2,0,1.5
		C18.4,64.1,17.5,64.1,17.2,63.7z M-5.2,46.7c-0.8-0.4-1.2-1-1.2-2l-0.1-0.9l-3.3,0c-2.3,0-3.6-0.1-4.5-0.3
		c-1.3-0.2-1.4-0.3-1.3-0.5c0.1-0.2,0.8-0.4,1.7-0.4c0.3,0,0.7,0,0.7-0.1c0.1-0.1-0.4-0.4-1.1-0.7c-1.8-0.9-1.6-1.4,0.3-0.8
		c1.9,0.6,3.5,0.7,9.8,0.8c5.6,0.1,6,0.1,6.9,0.4c0.5,0.2,1,0.4,1.2,0.6C4.4,43,4.4,43,4.2,43.2c-0.3,0.2-0.9,0.3-3.6,0.4l-2.2,0.1
		v0.5c0,0.8-0.3,1.3-0.9,1.9C-3.4,46.9-4.3,47.1-5.2,46.7z M33.5,46.3c-0.6-0.2-1-0.4-1.4-0.9c-0.3-0.4-0.4-0.5-0.3-1.4l0.1-1
		l-1.1-0.1c-0.6-0.1-2-0.1-3.2,0c-2,0.1-2.1,0.1-2.1-0.1c0-0.1,0.3-0.3,0.7-0.5c0.4-0.1,1-0.4,1.5-0.5c1-0.4,2.7-0.5,8.1-0.7
		c4.2-0.1,7.8-0.5,9-1c0.9-0.4,1.4-0.2,0.6,0.3c-0.5,0.3-1.8,0.9-2.6,1.1c-0.5,0.2-0.6,0.2-0.3,0.3c0.2,0,0.9,0.1,1.5,0
		c1-0.1,1.2,0,1.2,0.1c0,0.1-0.4,0.4-1.3,0.7c-1.2,0.4-1.3,0.4-4.4,0.5l-3.2,0.1l0.1,0.5c0.1,0.9-0.4,2-1.2,2.4
		C34.9,46.3,34,46.4,33.5,46.3z M5.4,33c-0.5-0.2-0.9-0.4-1.7-1c-0.9-0.7-2.8-1.6-4.1-1.9c-2-0.5-7.5-0.7-9.8-0.4
		c-2.6,0.3-5.8,1.5-6.9,2.5c-0.4,0.3-0.7,0.5-0.7,0.3c0-0.5,2.8-3.5,3.9-4.2c0.7-0.4,2.7-1.1,4.2-1.4c1.6-0.3,5.7-0.3,8.1,0
		c1.7,0.2,4,0.8,5.3,1.4c1.3,0.6,3.2,2.3,3.6,3.2C7.8,32.7,6.9,33.4,5.4,33z M21.1,31.9c-0.8-0.5-0.9-1.3-0.2-2c1-1.1,2.6-2,4.2-2.4
		c3.3-0.8,6.5-1.1,9.7-0.8c3.3,0.3,5.1,0.8,6.9,1.8c1.3,0.7,4.3,3,4.3,3.2c0,0.1-0.5,0-1.5-0.5c-1.7-0.8-2.9-1.1-5.2-1.5
		c-1.4-0.2-2.3-0.3-5.7-0.3c-2.2,0-4.3,0-4.5,0.1c-0.3,0.1-1.9,0.6-3.7,1.3c-1.8,0.7-3.3,1.2-3.5,1.2C21.6,32.1,21.3,32,21.1,31.9z"
		/>
</g>
<g transform="matrix(1,0,0,1,0,-0.003)">
	<path class="st6" d="M471.9,15C221,15,17.3,218.7,17.3,469.5c0,250.9,203.7,454.6,454.6,454.6c250.9,0,454.6-203.7,454.6-454.6
		C926.5,218.7,722.8,15,471.9,15z M471.9,30.4c242.4,0,439.2,196.8,439.2,439.2c0,242.4-196.8,439.2-439.2,439.2
		c-242.4,0-439.2-196.8-439.2-439.2C32.7,227.2,229.5,30.4,471.9,30.4z"/>
</g>
</svg>
